<?xml version="1.0" standalone="no"?>
<!DOCTYPE svg PUBLIC "-//W3C//DTD SVG 1.1//EN" "http://www.w3.org/Graphics/SVG/1.1/DTD/svg11.dtd" >
<svg xmlns="http://www.w3.org/2000/svg">
<metadata>Generated by IcoMoon</metadata>
<defs>
<font id="icomoon" horiz-adv-x="1024">
<font-face units-per-em="1024" ascent="960" descent="-64" />
<missing-glyph horiz-adv-x="1024" />
<glyph unicode="&#x20;" horiz-adv-x="512" d="" />
<glyph unicode="&#xe900;" glyph-name="ethereum" d="M509.611 193.28l-314.197 185.6 314.155-442.88 314.453 442.88-314.411-185.6zM514.389 960l-314.283-521.515 314.24-185.771 314.24 185.6-314.197 521.685z" />
<glyph unicode="&#xe901;" glyph-name="exit" d="M768 320v128h-320v128h320v128l192-192zM704 384v-256h-320v-192l-384 192v832h704v-320h-64v256h-512l256-128v-576h256v192z" />
<glyph unicode="&#xe902;" glyph-name="letter" d="M934-64h-844c-49.333 0-90 40-90 90v517.2c0 50.133 19.467 56.8 182 217.333v169.467c0 16.533 13.467 30 30 30h600c16.533 0 30-13.467 30-30v-169.467c162.8-160.8 182.133-167.333 182-217.333v-517.2c0-49.6-40.4-90-90-90zM921.6-4l-388.4 388.4c-11.733 11.733-30.667 11.733-42.4 0l-388.4-388.4h819.2zM182 676.267l-109.467-108.267 109.467-108.8v217.067zM60 495.867v-457.467l229.467 229.467-229.467 228zM782 900h-540v-500.267l89.867-89.333c121.067 121.067 131.2 142.8 180.133 142.8 49.467 0 61.467-24.133 180.133-142.8l89.867 89.333v500.267zM842 676.267v-216.933l109.467 108.8-109.467 108.133zM964 495.867l-229.467-228 229.467-229.467v457.467zM332 658c-39.6 0-39.733 60 0 60h360c39.6 0 39.733-60 0-60h-360zM692 778h-360c-39.6 0-39.733 60 0 60h360c39.6 0 39.733-60 0-60zM332 598h180c39.6 0 39.733-60 0-60h-180c-39.6 0-39.733 60 0 60z" />
<glyph unicode="&#xe903;" glyph-name="telegram-arrow" horiz-adv-x="1064" d="M633.434 149.31l-147.605 100.371-79.706-56.933c-13.871-9.248-31.465-2.716-36.269 12.652l-39.642 150.978-142.544 54.825c-19.644 7.481-19.665 35.526 0 43.016l541.076 215.503c15.296 5.099 31.63-2.665 31.63-23.617 0-0.485-91.426-481.136-91.515-481.612-3.42-15.393-20.665-25.519-35.425-15.182zM630.060 207.508l71.272 372.807-256.832-247.132 185.56-125.675zM388.832 316.735l17.713-66.633 37.955 27.412c-50.375 34.151-53.218 35.138-55.668 39.221zM260.206 432.71l97.841-37.112c14.583-5.145 14.756-17.206 26.569-62.416 2.1 12.601-14.415-6.427 251.771 249.662l-376.181-150.135zM969.774 679.231c-243.982 481.6-969.774 303.871-969.774-231.338 0-540.675 736.711-712.942 974.19-222.739 14.596 30.12-30.934 52.222-45.542 22.065-213.698-441.080-878.040-287.226-878.040 200.675 0 254.63 207.161 461.791 461.791 461.791 299.055 0 414.25-257.329 414.25-257.329-51.594 52.906-128.167-47.782-41.865-80.474 100.477-38.575 102.762-43.219 119.771-35.636 17.164 7.654 15.52 12.635 53.981 112.812 30.010 78.024-80.74 98.402-88.761 30.175z" />
<glyph unicode="&#xe904;" glyph-name="telegram" d="M824.348-9.972c-7.999 0-15.943 2.367-22.758 6.988l-257.474 174.651-138.095-99.366c-10.831-7.788-24.79-9.75-37.366-5.253-12.56 4.507-22.099 14.911-25.504 27.811l-69.339 262.776-247.757 94.735c-15.597 5.967-25.941 20.888-26.055 37.588s10.025 31.762 25.547 37.939l942.063 374.854c4.275 1.816 8.798 2.864 13.36 3.145 1.632 0.097 3.27 0.097 4.896 0.005 9.447-0.562 18.726-4.41 25.968-11.512 0.751-0.735 1.465-1.486 2.14-2.27 5.999-6.853 9.296-15.208 9.917-23.72 0.151-2.14 0.141-4.307-0.049-6.475-0.13-1.546-0.351-3.086-0.665-4.615l-159.016-834.336c-2.556-13.403-11.679-24.623-24.282-29.849-4.999-2.075-10.279-3.097-15.532-3.097zM566.723 254.291l229.349-155.567 123.73 649.206-446.879-430.012 92.719-62.897c0.373-0.232 0.73-0.481 1.081-0.73zM375.799 288.884l30.708-116.358 66.161 47.608-86.634 58.768c-4.026 2.724-7.474 6.118-10.236 9.982zM152.060 490.99l170.122-65.043c12.187-4.659 21.385-14.906 24.715-27.52l21.575-81.764c0.989 9.431 5.264 18.305 12.209 24.99l425.812 409.734-654.432-260.398z" />
<glyph unicode="&#xe905;" glyph-name="arrow-down" horiz-adv-x="1661" d="M1604.187 903.493c-34.939 34.957-83.217 56.58-136.545 56.58s-101.606-21.623-136.544-56.579l-500.665-501.008-500.664 501.008c-34.939 34.957-83.217 56.58-136.545 56.58s-101.606-21.623-136.544-56.579l-0.173-0.173c-34.906-34.931-56.494-83.174-56.494-136.459 0-53.371 21.657-101.683 56.663-136.628l637.212-637.555c34.92-34.999 83.204-56.651 136.545-56.651s101.625 21.653 136.541 56.648l637.213 637.728c34.957 34.939 56.58 83.217 56.58 136.545s-21.623 101.606-56.579 136.544l-0.001 0.001z" />
<glyph unicode="&#xe906;" glyph-name="cross" d="M1024 887.596l-72.404 72.404-439.596-439.596-439.596 439.596-72.404-72.404 439.596-439.596-439.596-439.596 72.404-72.404 439.596 439.596 439.596-439.596 72.404 72.404-439.596 439.596z" />
<glyph unicode="&#xe907;" glyph-name="help" d="M512 960c-283.307 0-512-228.693-512-512s228.693-512 512-512 512 228.693 512 512c0 283.307-228.693 512-512 512zM512 28.16c-232.107 0-419.84 187.733-419.84 419.84s187.733 419.84 419.84 419.84c232.107 0 419.84-187.733 419.84-419.84 0 0 0 0 0 0 0-232.107-187.733-419.84-419.84-419.84zM512 301.227c-23.893 0-44.373-20.48-44.373-44.373s20.48-44.373 44.373-44.373c23.893 0 44.373 20.48 44.373 44.373s-20.48 44.373-44.373 44.373zM512 686.933c-68.267 0-122.88-54.613-126.293-122.88 3.413-17.067 17.067-34.133 37.547-30.72 17.067 0 27.307 13.653 30.72 30.72 0 30.72 23.893 58.027 58.027 58.027 30.72 0 58.027-23.893 58.027-58.027 0-30.72-23.893-58.027-58.027-58.027 0 0 0 0 0 0-17.067 0-34.133-13.653-34.133-34.133 0 0 0 0 0 0v-68.267c0-17.067 13.653-34.133 34.133-34.133 17.067 0 34.133 13.653 34.133 34.133 0 0 0 0 0 0v37.547c64.853 17.067 105.813 85.333 85.333 153.6-13.653 54.613-64.853 92.16-119.467 92.16z" />
<glyph unicode="&#xe908;" glyph-name="arrow-double" horiz-adv-x="1223" d="M577.102 364.035l-380.419-391.94c-106.55-111.24-266.935 59.953-163.139 168.033l298.951 307.924-298.951 308.026c-102.879 107.162 56.895 278.865 163.139 168.033l380.419-392.042c20.914-21.766 33.794-51.387 33.794-84.016s-12.88-62.251-33.833-84.057l0.039 0.041zM1188.872 364.035l-380.419-391.94c-105.428-110.017-266.731 60.157-163.139 168.033l298.951 307.924-298.849 308.026c-102.879 107.162 56.895 278.865 163.139 168.033l380.521-392.042c20.884-21.76 33.743-51.36 33.743-83.963 0-32.655-12.9-62.298-33.883-84.109l-0.064 0.039z" />
<glyph unicode="&#xe909;" glyph-name="ok" horiz-adv-x="1195" d="M1194.667 814.933l-128 145.067-622.933-733.867-315.733 366.933-128-145.067 443.733-512z" />
<glyph unicode="&#xe90a;" glyph-name="language" horiz-adv-x="1347" d="M999.053 572.025l-1.078 138.979s229.723 39.612 237.47 40.892c12.606 2.082 7.474 14.583 1.293 47.138-7.76 40.871-5.642 44.075-20.56 41.517-7.006-1.213-218.944-31.056-218.944-31.056s-0.808 131.569-0.876 139.99c-0.105 13.149-8.587 10.577-44.574 10.025-37.724-0.579-48.717 2.223-48.46-10.564 0.135-6.737 2.223-155.417 2.223-155.417s-206.212-35.503-211.803-36.581c-15.257-2.543-10.663-6.246-2.516-52.999 6.128-35.166 4.509-45.551 19.021-42.797 7.747 1.28 196.982 33.953 196.982 33.953l2.358-135.948c-225.201-58.757-281.988-302.678-193.511-409.030 95.262-114.508 367.683-93.67 505.692 257.723 73.902-101.455 17.246-293.318-141.067-402.857-11.692-7.884 1.497-18.446 21.065-42.391 16.196-19.817 22.903-33.218 35.658-24.035 325.341 224.241 266.48 652.287-138.373 633.458zM833.127 174.018c-100.447 12.581-89.14 234.765 78.214 296.956l5.524-288.131c-45.635-15.526-83.738-8.825-83.738-8.825zM996.628 211.272l3.099 276.813c44.031 2.097 107.356-3.423 143.964-23.646 26.341-14.619-68.917-182.768-147.063-253.167zM393.689 727.845c-4.436 13.901-14.804 9.768-76.454 9.768-70.561 0-77.024 3.642-81.186-9.701-27.755-87.51-234.439-740.368-235.517-743.804-2.415-7.244-1.048-5.12 62.42-5.12 64.717 0 64.138-1.832 66.184 4.85 1.011 3.436 67.906 223.525 67.906 223.525h235.517s66.829-220.157 67.906-223.525c2.206-6.758 1.472-4.85 66.016-4.85 64.713 0 64.82-1.994 62.589 5.12-0.943 3.368-207.694 656.226-235.382 743.737zM217.321 302.218l97.481 353.679 97.481-353.679h-194.961z" />
<glyph unicode="&#xe90b;" glyph-name="wallet" horiz-adv-x="995" d="M282.844 603.826v0c-23.57 44.522-31.427 96.9-20.951 149.279 23.57 123.090 144.041 204.276 267.13 180.706s204.276-144.041 180.706-267.13c-5.238-20.951-10.476-41.903-20.951-62.854h28.808c57.616 128.327-2.619 277.606-130.946 335.223s-277.606-2.619-335.223-130.946c-7.857-15.714-13.095-34.046-15.714-49.76-2.619-10.476-2.619-18.332-5.238-28.808-2.619-44.522 2.619-86.425 20.951-125.708h31.427zM780.44 315.744v0c-34.046 2.619-62.854-20.951-65.473-54.997 7.857-36.665 41.903-60.235 78.568-52.379 26.189 5.238 47.141 26.189 52.379 52.379-5.238 31.427-34.046 57.616-65.473 54.997zM780.44 234.558v0c-15.714 2.619-23.57 18.332-20.951 31.427s18.332 23.57 31.427 20.951 20.951-13.095 20.951-26.189c-2.619-15.714-15.714-28.808-31.427-26.189zM945.432 381.217v0h-15.714v340.46c0 7.857-7.857 13.095-15.714 13.095h-117.852v-26.189h102.138v-107.376h-329.985c5.238 7.857 7.857 18.332 7.857 26.189 2.619 28.808-7.857 57.616-26.189 78.568 18.332 10.476 28.808 31.427 26.189 52.379 0 39.284-44.522 70.711-78.568 78.568v23.57c-5.238 10.476-41.903 10.476-26.189 0v-23.57h-26.189v23.57c-2.619 10.476-39.284 10.476-26.189 0v-23.57h-20.951c-57.616 0-31.427-26.189-31.427-26.189h26.189v-212.133h-293.32c-34.046-2.619-62.854 20.951-65.473 54.997 2.619 34.046 34.046 57.616 65.473 54.997h81.187v26.189h-81.187c-54.997 0-99.519-36.665-99.519-81.187v-636.399c0-44.522 44.522-81.187 99.519-81.187h811.867c7.857 0 15.714 5.238 15.714 13.095v188.563h15.714c23.57-2.619 47.141 15.714 49.76 41.903v162.373c0 23.57-23.57 41.903-47.141 39.284zM419.028 810.721h86.425c26.189-5.238 44.522-26.189 47.141-52.379-2.619-28.808-23.57-49.76-52.379-52.379h-78.568l-2.619 104.757zM419.028 679.775h78.568c28.808-2.619 49.76-23.57 52.379-52.379 0-10.476-5.238-18.332-10.476-26.189h-120.471v78.568zM497.596 328.839c-23.57 0-20.951 31.427 0 26.189v0c18.332 5.238 20.951-26.189 0-26.189zM563.069 98.373v0c-7.857 2.619-13.095 7.857-10.476 15.714s7.857 13.095 15.714 10.476c5.238 0 10.476-7.857 10.476-13.095 0-7.857-7.857-13.095-15.714-13.095zM895.673-37.811v0h-65.473v68.092c-2.619 23.57-26.189 41.903-49.76 39.284h-36.665c-7.857 18.332-26.189 28.808-47.141 26.189-23.57 5.238-44.522-10.476-49.76-31.427-5.238-23.57 10.476-44.522 31.427-49.76 5.238 0 10.476 0 15.714 0 18.332 0 36.665 10.476 47.141 26.189h36.665c7.857 0 15.714-5.238 15.714-13.095v-68.092h-214.752v109.995c18.332 2.619 31.427 18.332 34.046 39.284-5.238 26.189-31.427 44.522-60.235 39.284-20.951-5.238-36.665-20.951-39.284-39.284 0-18.332 15.714-34.046 34.046-39.284v-109.995h-164.992v230.465c0 7.857 7.857 13.095 15.714 13.095h52.379c7.857-18.332 26.189-28.808 47.141-26.189 23.57-5.238 44.522 10.476 49.76 31.427 5.238 23.57-10.476 44.522-31.427 49.76-5.238 0-10.476 0-15.714 0-18.332 0-36.665-10.476-47.141-26.189h-52.379c-23.57 2.619-47.141-15.714-49.76-39.284v-230.465h-251.417c-34.046-2.619-62.854 20.951-65.473 54.997v13.095h185.944c7.857-18.332 26.189-28.808 47.141-26.189 23.57-5.238 44.522 10.476 49.76 31.427 5.238 23.57-10.476 44.522-31.427 49.76-5.238 0-10.476 0-15.714 0-18.332 0-36.665-10.476-47.141-26.189h-188.563v81.187h164.992c23.57-2.619 47.141 15.714 49.76 39.284v41.903c18.332 2.619 31.427 18.332 34.046 39.284-5.238 26.189-31.427 44.522-60.235 39.284-20.951-5.238-36.665-20.951-39.284-39.284 0-18.332 13.095-34.046 31.427-39.284v-41.903c0-7.857-7.857-13.095-15.714-13.095h-164.992v217.371h86.425c7.857-18.332 26.189-28.808 47.141-26.189 23.57-2.619 47.141 15.714 49.76 39.284-2.619 23.57-26.189 41.903-49.76 39.284-18.332 0-36.665-10.476-47.141-26.189h-86.425v81.187h248.798c23.57 2.619 47.141-15.714 49.76-39.284v-70.711c-18.332-2.619-31.427-18.332-34.046-39.284 5.238-26.189 31.427-44.522 60.235-39.284 20.951 5.238 36.665 20.951 39.284 39.284-2.619 18.332-15.714 34.046-34.046 39.284v70.711c-5.238 41.903-41.903 70.711-83.806 68.092h-246.179v73.33c18.332-13.095 44.522-20.951 65.473-20.951h382.363v-191.182c-18.332-5.238-31.427-18.332-34.046-39.284 5.238-26.189 31.427-44.522 60.235-39.284 20.951 5.238 36.665 20.951 39.284 39.284-2.619 18.332-15.714 34.046-34.046 39.284v191.182h382.363v-26.189h-164.992c-41.903 2.619-78.568-26.189-83.806-68.092v-15.714c-18.332-5.238-31.427-18.332-34.046-39.284 5.238-26.189 31.427-44.522 60.235-39.284 20.951 5.238 36.665 18.332 39.284 39.284-2.619 18.332-15.714 34.046-34.046 39.284v15.714c2.619 23.57 26.189 41.903 49.76 41.903h164.992v-136.184h-115.233c-70.711 2.619-157.136-54.997-149.279-133.565 7.857-70.711 83.806-109.995 149.279-109.995h115.233l2.619-178.087zM712.348 56.471c0-7.857-7.857-13.095-15.714-13.095s-15.714 2.619-15.714 10.476c-2.619 7.857 2.619 15.714 10.476 15.714 2.619 0 2.619 0 5.238 0 7.857 2.619 15.714-2.619 15.714-13.095zM479.263 218.844v0c0 7.857 7.857 13.095 15.714 13.095 7.857 2.619 15.714-2.619 15.714-10.476 2.619-7.857-2.619-15.714-10.476-15.714-2.619 0-2.619 0-5.238 0-5.238 0-13.095 5.238-15.714 13.095zM261.893 64.327c10.476 2.619 18.332-5.238 20.951-13.095 2.619-10.476-5.238-18.332-13.095-20.951h-2.619c-7.857 0-15.714 5.238-15.714 13.095v0c-5.238 10.476 0 18.332 10.476 20.951zM214.752 260.747v0c0 7.857 5.238 18.332 13.095 18.332s18.332-5.238 20.951-13.095-5.238-18.332-13.095-20.951h-2.619c-10.476 0-15.714 7.857-18.332 15.714zM149.279 396.931v0c0 7.857 7.857 13.095 15.714 13.095s15.714-5.238 18.332-10.476c0-7.857-5.238-15.714-13.095-18.332-2.619 0-2.619 0-5.238 0-7.857 0-15.714 5.238-15.714 15.714zM348.317 355.028v0c7.857-2.619 13.095-7.857 10.476-15.714s-7.857-13.095-15.714-10.476c-5.238 0-10.476 7.857-10.476 13.095 0 7.857 7.857 13.095 15.714 13.095zM678.302 423.12c0-7.857-7.857-13.095-15.714-13.095-7.857-2.619-15.714 2.619-15.714 10.476-2.619 7.857 2.619 15.714 10.476 15.714 2.619 0 5.238 0 5.238 0 7.857 0 15.714-5.238 15.714-13.095zM961.146 179.56c0-7.857-7.857-13.095-15.714-13.095h-164.992c-52.379 0-115.233 36.665-115.233 94.281 0 60.235 68.092 99.519 120.471 94.281h162.373c7.857 0 15.714-5.238 15.714-13.095v-162.373h-2.619z" />
<glyph unicode="&#xe90c;" glyph-name="bell" horiz-adv-x="913" d="M860.791 315.511c-11.734 8.691-21.578 19.152-29.335 31.093l-0.281 0.461-0.538 0.323c-18.951 46.102-30.667 99.535-32.293 155.497l-0.015 0.658c-0.48 7.439-1.246 14.155-2.317 20.769l0.163-1.223v1.615c-12.156 93.293-46.066 176.874-96.457 247.946l1.148-1.706c-38.882 53.253-93.638 92.854-157.248 112.039l-2.138 0.554c-4.984 42.978-41.171 76.029-85.078 76.029s-80.094-33.051-85.040-75.63l-0.038-0.399c-65.743-19.721-120.5-59.304-158.791-111.686l-0.595-0.854c-49.266-69.429-83.18-153.087-95.013-243.686l-0.296-2.77v-1.615c-0.912-5.386-1.678-12.084-2.121-18.869l-0.033-0.623c-1.671-56.624-13.384-110.053-33.409-159.211l1.101 3.056c-0.566-0.398-0.962-1.006-1.075-1.708l-0.002-0.015c-8.168-11.584-17.784-21.457-28.737-29.641l-0.34-0.243c-31.363-19.006-52.001-52.952-52.001-91.718 0-20.23 5.62-39.147 15.384-55.275l-0.268 0.477 1.346-2.154c7.594-13.585 21.888-22.618 38.292-22.618 0.168 0 0.335 0.001 0.503 0.003h802.289c0.142-0.002 0.309-0.003 0.477-0.003 16.404 0 30.698 9.034 38.179 22.397l0.114 0.221c10.282 16.129 16.388 35.789 16.388 56.875 0 37.914-19.74 71.217-49.503 90.192l-2.424 1.442zM557.635 72.77h-198.694c-0.465 0.030-1.008 0.047-1.556 0.047-14.215 0-25.739-11.524-25.739-25.739 0-1.539 0.135-3.045 0.394-4.51l-0.023 0.155c9.567-60.77 61.561-106.696 124.282-106.696 63.219 0 115.54 46.657 124.407 107.416l0.081 0.68c0.145 1.092 0.228 2.354 0.228 3.635 0 6.779-2.315 13.017-6.199 17.967l0.048-0.063c-4.117 4.388-9.954 7.122-16.428 7.122-0.282 0-0.563-0.005-0.843-0.016l0.040 0.001z" />
<glyph unicode="&#xe90d;" glyph-name="game" horiz-adv-x="1021" d="M550.698 584.93v26.791c-5.953 11.907-47.628 11.907-29.767 0v-26.791h-29.767v26.791c-2.977 11.907-44.651 11.907-29.767 0v-26.791h-23.814c-65.488 0-35.721-29.767-35.721-29.767h29.767v-267.907h-29.767c0 0-29.767-29.767 35.721-29.767h23.814v-29.767c-14.884-11.907 26.791-11.907 29.767 0v29.767h29.767v-29.767c-17.86-11.907 23.814-11.907 29.767 0v29.767c44.651 2.977 86.326 44.651 89.302 89.302 0 32.744-14.884 56.558-41.674 74.419 20.837 11.907 41.674 41.674 41.674 74.419 0 47.628-41.674 86.326-89.302 89.302zM550.698 290.233h-89.302v119.070h89.302c32.744-2.977 56.558-26.791 59.535-59.535 2.977-29.767-17.86-59.535-59.535-59.535zM550.698 439.070h-89.302v119.070c0 0 71.442 2.977 95.256 0 29.767-2.977 50.605-29.767 50.605-59.535 2.977-32.744-23.814-56.558-56.558-59.535zM267.907 126.512c172.651-128 428.651-98.233 556.651 74.419 130.977 175.628 101.209 425.674-71.442 559.628s-428.651 101.209-559.628-68.465c-8.93-8.93-11.907-23.814-2.977-29.767 5.953-5.953 17.86 0 20.837 2.977 125.023 160.744 351.256 196.465 514.977 77.395v0c163.721-122.047 196.465-354.233 74.419-517.953s-351.256-196.465-514.977-77.395c-71.442 53.581-122.047 130.977-139.907 217.302 0 0 29.767-17.86 41.674-26.791 5.953-2.977 17.86-2.977 20.837 2.977s2.977 14.884-2.977 20.837c-20.837 14.884-80.372 53.581-80.372 53.581s-41.674-59.535-53.581-80.372c-2.977-5.953-2.977-14.884 2.977-17.86s17.86-2.977 20.837 2.977c5.953 8.93 26.791 41.674 26.791 41.674 20.837-101.209 68.465-178.605 145.86-235.163zM29.767 275.349c-95.256 264.93 41.674 559.628 306.605 654.884s556.651-41.674 651.907-306.605c47.628-128 38.698-267.907-17.86-392.93-2.977-2.977-2.977-8.93-5.953-11.907-53.581-107.163-142.884-193.488-253.023-241.116l44.651-11.907c8.93-2.977 14.884-11.907 11.907-20.837s-11.907-11.907-20.837-8.93c-26.791 8.93-92.279 26.791-92.279 26.791l26.791 92.279c2.977 8.93 8.93 14.884 17.86 11.907s11.907-8.93 8.93-17.86c-2.977-11.907-11.907-44.651-11.907-44.651 244.093 104.186 360.186 386.977 256 631.070-92.279 223.256-330.419 342.326-562.605 282.791-258.977-68.465-410.791-333.395-345.302-592.372 35.721-133.953 125.023-244.093 247.070-306.605 5.953-2.977 8.93-11.907 5.953-20.837v0c-2.977-5.953-11.907-8.93-20.837-5.953-113.116 59.535-202.419 160.744-247.070 282.791v0zM660.837 576c26.791-5.953 95.256-17.86 95.256-17.86s11.907 71.442 17.86 95.256c2.977 8.93-2.977 17.86-8.93 17.86-11.907 2.977-17.86-5.953-17.86-11.907-2.977-11.907-8.93-44.651-8.93-44.651-92.279 125.023-270.884 151.814-395.907 56.558-56.558-41.674-92.279-101.209-107.163-169.674-32.744-154.791 62.512-306.605 217.302-339.349 11.907-2.977 20.837-2.977 32.744-5.953 62.512-5.953 128 8.93 181.581 44.651 62.512 41.674 107.163 104.186 125.023 178.605 2.977 8.93 0 14.884-8.93 17.86s-17.86-5.953-17.86-11.907c-17.86-59.535-53.581-125.023-110.14-160.744s-125.023-50.605-190.512-35.721c-136.93 29.767-226.233 166.698-196.465 303.628s166.698 226.233 303.628 196.465c59.535-11.907 113.116-47.628 148.837-95.256 0 0-35.721 5.953-47.628 8.93-14.884 2.977-23.814-2.977-23.814-8.93s2.977-14.884 11.907-17.86z" />
<glyph unicode="&#xe90e;" glyph-name="logo-text" horiz-adv-x="5057" d="M1318.075 894.707v-675.497c0-86.403 134.435-86.419 134.435 0v675.497c0 86.388-134.435 86.414-134.435 0zM134.429 679.752v214.955c0 86.388-134.429 86.414-134.429 0 0-504.394-0.419-467.107 0.808-475.13 10.655-148.529 138.357-266.237 293.928-266.237 162.519 0 294.73 128.446 294.73 286.325-0.005 227.565-260.799 362.891-455.037 240.087zM294.73 283.937c-117.367 0-194.227 118.72-145.588 220.885 55.598 116.79 224.64 121.614 287.101 7.944 56.253-102.375-19.884-228.829-141.513-228.829zM2761.508 660.094v-220.434c0-203.314-320.597-211.871-320.597 6.937v213.497c0 86.372-134.435 86.461-134.435 0v-210.309c0-395.968 589.471-385.874 589.471-10.136v220.445c0.005 86.372-134.44 86.466-134.44 0zM3028.195 428.974v-210.335c0-86.388 134.429-86.419 134.429 0v220.424c0 203.267 320.602 212.029 320.602-6.911v-213.518c0-86.403 134.435-86.403 134.435 0v220.429c0.005 375.13-589.466 386.933-589.466-10.089zM4069.232 724.637c-190.95 17.828-349.636-142.588-320.204-329.825 31.493-200.283 268.885-308.783 449.641-196.24-17.052-107.892-147.182-175.198-253.547-99.633-71.318 50.737-153.872-56.069-79.157-109.008 190.341-134.87 468.995-8.925 468.995 264.947v175.806c0 148.943-113.119 279.713-265.728 293.954zM4040.24 283.937c-111.803 0-188.852 108.652-150.412 209.606 46.998 123.439 221.284 138.399 289.382 23.675 60.794-102.433-15.018-233.281-138.97-233.281zM4754.177 725.87c-153.647-4.216-281.721-128.656-286.089-277.925-6.35-217.472 228.845-359.252 423.968-265.225 78.26 37.701 22.374 155.199-62.073 116.030-74.349-34.508-164.957-6.927-206.544 64.207h352.514c43.747 0 81.060 33.596 81.485 76.095v0.613c-0.005 160.647-136.862 290.782-303.262 286.204zM4612.297 493.538c51.508 135.242 249.174 135.588 300.808 0h-300.808zM1632.269 595.394c-125.935-188.045 12.391-442.053 247.224-442.053 235.032 0 373.064 254.15 247.224 442.053-116.538 174.018-377.883 174.050-494.447 0zM1879.493 283.937c-124.55 0-200.566 132.196-138.053 234.807 60.212 98.836 205.018 102.648 270.94 7.928 71.008-102.035-3.781-242.735-132.888-242.735zM1092.832 576.533c75.261-39.825 137.775 77.101 60.369 116.69-194.085 99.266-431.509-37.518-431.509-253.558 0-215.511 236.301-352.215 430.203-254.203 77.374 39.112 15.458 156.337-59.756 116.984-105.784-55.335-236.018 19.239-236.018 137.219 0.005 118.526 131.126 192.696 236.71 136.868z" />
<glyph unicode="&#xe90f;" glyph-name="logo-circle-outer" horiz-adv-x="1048" d="M536.353 960c-190.858 0-365.969-107.056-453.832-274.938-4.319 10.238-12.172 18.279-21.996 22.737l-0.27 0.11c-5.16 2.346-11.19 3.713-17.539 3.713-17.556 0-32.672-10.452-39.463-25.473l-0.11-0.272c-5.593-12.622-2.848-25.669 1.489-37.728 0.615-1.705 36.949-97.161 36.949-97.161 4.778-12.142 16.403-20.58 29.998-20.58 4.156 0 8.128 0.789 11.775 2.224l-0.218-0.076s95.143 37.148 96.814 37.841c11.843 4.883 23.366 11.609 28.959 24.232 2.347 5.162 3.714 11.194 3.714 17.545 0 17.555-10.449 32.67-25.466 39.465l-0.272 0.11c-5.145 2.342-11.159 3.707-17.491 3.707-5.785 0-11.303-1.139-16.344-3.206l0.287 0.104c75.067 140.404 222.483 229.729 383.015 229.729 239.356 0 434.093-194.737 434.093-434.093 0-239.348-194.728-434.085-434.093-434.085-165.441 0-318.917 96.286-391.015 245.313-6.388 13.303-19.755 22.325-35.228 22.325-21.516 0-38.958-17.442-38.958-38.958 0-6.304 1.497-12.258 4.156-17.527l-0.102 0.223c85.014-175.734 266.029-289.292 461.147-289.292 282.314 0 512.009 229.678 512.009 512s-229.695 512.009-512.009 512.009z" />
<glyph unicode="&#xe910;" glyph-name="logo-circle-inner" horiz-adv-x="1036" d="M1028.368 783.252c-11.568 22.198-34.407 37.094-60.725 37.094-11.376 0-22.102-2.783-31.534-7.706l0.377 0.179c-14.974-7.842-26.435-20.679-32.32-36.254l-0.155-0.466c-1.433 2.157-2.744 4.368-4.477 6.375-115.498 133.626-288.642 197.865-463.097 171.834-279.168-41.634-472.42-302.62-430.799-581.802 20.162-135.237 91.787-254.529 201.674-335.887 89.097-65.973 194.685-100.605 303.535-100.605 25.404 0 50.999 1.897 76.594 5.706 135.441 20.189 254.843 91.978 336.214 202.124 7.762 10.176 12.437 23.071 12.437 37.058 0 33.926-27.502 61.428-61.428 61.428-20.425 0-38.522-9.969-49.69-25.306l-0.122-0.176c-61.837-83.705-152.6-138.253-255.539-153.597-102.775-15.371-205.373 10.279-288.888 72.116-83.514 61.824-137.939 152.477-153.269 255.266-31.642 212.171 115.238 410.528 327.41 442.157 125.545 18.756 250.134-24.134 337.579-114.965-5.718 1.74-12.291 2.742-19.097 2.742-11.276 0-21.911-2.75-31.268-7.616l0.377 0.178c-22.198-11.568-37.094-34.407-37.094-60.725 0-11.376 2.783-22.102 7.706-31.534l-0.179 0.377c9.938-19.37 28.666-28.926 47.75-35.56 2.703-0.942 155.794-50.93 155.794-50.93 4.639-1.546 9.979-2.437 15.528-2.437 22.444 0 41.481 14.588 48.145 34.799l0.102 0.358s49.074 153.419 49.497 156.258c8.409 18.36 8.9 40.146-1.037 59.517z" />
<glyph unicode="&#xe911;" glyph-name="logo-bitcoin" horiz-adv-x="683" d="M679.857 615.927c-8.359 42.827-35.548 77.366-70.745 102.020l29.702 95.469c1.68 5.213 2.648 11.21 2.648 17.434 0 32.423-26.284 58.706-58.706 58.706-26.199 0-48.39-17.162-55.944-40.857l-0.114-0.416-25.429-81.733-122.729 35.478 25.452 81.804c1.68 5.213 2.648 11.21 2.648 17.434 0 32.423-26.284 58.706-58.706 58.706-26.199 0-48.39-17.162-55.944-40.857l-0.114-0.416-26.156-84.058c-16.647 4.813-34.821 11.364-52.336 8.288-22.306-3.874-33.224-25.546-39.376-45.339l-169.078-543.956c-6.081-19.559-9.298-42.945 7.255-58.065 12.89-11.787 32.003-15.849 48.345-20.592l-29.232-93.943c-22.447-72.13 89.622-107.068 112.092-34.844l29.913 96.173 122.729-35.501-29.96-96.267c-22.447-72.13 89.622-107.068 112.092-34.844l36.018 115.802c78.563 4.79 155.201 43.038 189.153 117.023 35.079 76.45 18.948 166.072-50.294 216.836l2.043 6.574c83.024 16.013 141.137 100.259 124.772 183.941zM454.991 289.652c-13.149-42.287-51.702-64.64-94.835-61.024-19.981 1.667-138.366 37.168-178.141 48.674l52.36 168.467 119.324-34.515c58.559-16.929 124.748-46.208 101.292-121.602zM506.623 563.45c-19.77-63.395-82.391-46.42-130.407-32.543l-105.847 30.594 38.624 124.231 106.34-30.759c44.424-12.82 110.543-29.561 91.289-91.524z" />
<glyph unicode="&#xe912;" glyph-name="logo-allert" horiz-adv-x="974" d="M739.672 532.977c8.711 71.899-32.681 140.53-99.126 168.85l4.361 20.702c4.361 19.609-7.629 39.218-27.238 43.579s-39.218-7.629-43.579-27.238l-3.268-18.516-34.857 8.711 4.361 17.434c4.361 19.609-7.629 39.218-27.238 43.579s-39.218-7.629-43.579-27.238l-4.361-17.434-3.268 1.093c-37.043 8.711-74.074-14.166-82.786-52.29l-96.951-417.218c-8.711-37.043 14.166-75.167 52.29-83.879l3.268-1.093-4.361-16.341c-4.361-19.609 6.536-39.218 26.145-43.579s39.218 6.536 43.579 26.145v1.093l4.361 16.341 34.857-8.711-4.361-16.341c-4.361-19.609 7.629-39.218 27.238-43.579s39.218 7.629 43.579 27.238l4.361 19.609c88.24-6.536 164.489 58.827 171.026 147.066 3.268 39.218-8.711 78.435-32.681 110.024 47.929 22.855 80.611 68.609 88.229 121.992zM606.771 291.135c-11.98-44.661-56.651-71.899-101.312-63.188l-151.417 34.857 39.218 169.943 151.417-34.857c46.847-13.073 74.085-59.909 62.095-106.756zM665.597 532.977c-10.897-45.754-57.734-75.167-103.488-64.27l-151.417 35.939 39.218 169.943 151.417-35.95c45.754-10.897 75.167-58.827 64.27-105.663zM933.574 868.492c-5.443 20.702-26.145 33.774-46.847 28.32s-33.774-26.145-28.32-46.847l8.711-32.681c-95.847 90.426-222.223 142.716-357.299 142.716-282.142-1.093-510.902-230.945-509.819-514.17s230.945-510.902 514.17-509.819c154.685 0 300.658 69.713 396.527 190.634 1.093 1.093 1.093 1.093 1.093 2.175 4.232 6.087 6.761 13.635 6.761 21.773 0 13.048-6.501 24.578-16.441 31.528l-0.124 0.082c-16.341 10.897-38.125 7.629-50.115-7.629-26.636-33.028-57.127-61.443-91.164-85.115l-1.426-0.939c-199.357-136.169-470.602-84.972-606.771 113.292s-84.961 470.602 113.292 605.678c173.212 118.735 400.889 94.776 546.862-43.579l-34.857 14.166c-19.609 7.629-42.486-2.175-50.115-21.784s2.175-42.486 21.784-50.115l143.798-58.827c6.515-2.804 14.099-4.434 22.064-4.434 15.064 0 28.766 5.832 38.971 15.362l-0.033-0.031c16.341 14.166 22.877 35.95 17.434 57.734l-38.136 152.51z" />
<glyph unicode="&#xe913;" glyph-name="logo-entire" horiz-adv-x="1048" d="M629.088 543.957l10.912 35.248c8.487 27.453-32.823 40.097-41.31 12.904l-9.353-30.138-45.294 13.077 9.353 30.138c8.487 27.453-32.909 40.097-41.31 12.904l-9.613-31.004c-36.114 10.479-24.249 17.234-96.217-214.344-6.235-20.179 3.204-23.989 20.525-29.012l-10.739-34.641c-8.487-27.367 32.823-40.184 41.31-12.904l10.999 35.507 45.294-13.077-11.085-35.507c-4.33-13.857 6.062-28.060 20.698-28.060 20.092 0 21.131 16.714 33.949 57.938 77.424 4.763 99.421 87.816 51.183 123.15l0.779 2.425c45.727 8.747 68.503 71.361 19.919 105.396zM525.943 365.727l-54.387 15.762 19.313 62.095c41.57-12.038 95.004-17.84 81.147-58.717-5.11-14.809-20.352-26.587-46.073-19.139zM504.119 486.279l14.203 45.813c41.137-11.865 83.832-15.762 72.401-47.199-10.219-27.973-43.648-10.999-86.604 1.386zM82.1 684.947c-20.179 47.978-101.153 27.886-77.943-36.893 38.625-107.562 40.357-108.687 53.348-114.75 14.116-6.582 17.234-6.235 122.024 36.98 64.866 26.76 22.517 101.586-26.587 82.014 131.551 245.954 460.904 308.222 672.303 119.253 160.996-144.022 191.221-382.441 74.479-560.844-187.237-286.138-609.602-251.756-754.75 48.325-22.43 46.419-92.666 12.471-70.149-33.949 173.9-359.491 682.522-393.786 897.472-45.467 132.763 215.123 88.942 498.663-110.593 663.296-252.969 208.801-630.214 127.567-779.605-157.965zM694.647 530.533c107.129-37.24 110.073-37.153 123.41-30.311s15.069 9.093 47.372 117.867c18.187 61.229-60.449 83.832-79.589 33.256-19.746 29.792-86.171 88.595-172.601 108.774-205.77 47.978-433.884-119.513-397.337-364.861 42.696-286.484 411.627-376.206 582.409-145.061 30.744 41.57-32.13 87.729-62.701 46.333-129.905-175.805-410.241-107.129-442.631 110.246-35.421 237.294 256.173 379.67 421.932 207.589-51.356 14.723-82.88-62.095-20.265-83.832z" />
<glyph unicode="&#xe914;" glyph-name="arrow-down-2" horiz-adv-x="932" d="M932.422 399.282c0.651 87.394-110.916 131.649-172.092 70.752l-193.383-192.267v581.451c0 55.763-45.205 100.968-100.968 100.968s-100.968-45.205-100.968-100.968v0-580.893l-193.197 191.709c-18.314 18.11-43.505 29.297-71.31 29.297s-52.996-11.187-71.319-29.307l0.009 0.009c-18.062-18.11-29.23-43.104-29.23-70.706s11.168-52.595 29.232-70.708l-0.002 0.002 365.568-363.058c18.163-18.294 43.325-29.619 71.132-29.619 28.219 0 53.714 11.662 71.929 30.43l0.024 0.025 365.196 362.686c18.131 17.596 29.382 42.192 29.382 69.417 0 0.273-0.001 0.546-0.003 0.819v-0.042z" />
<glyph unicode="&#xe915;" glyph-name="volume-whole-off" horiz-adv-x="1421" d="M867.751 949.353c-21.294 10.647-47.913 15.971-69.207 0l-484.45-255.534v-489.774l484.45-260.858c37.265-15.971 79.854-5.324 95.825 31.942 5.324 10.647 10.647 21.294 10.647 31.942v883.722c0 21.295-10.647 47.913-37.265 58.56zM0 613.964v-330.065c0-37.265 31.942-69.207 69.207-69.207h159.709v468.479h-159.709c-37.265 0-69.207-31.942-69.207-69.207zM1272.347 448.932l149.062-149.062-74.531-74.531-149.062 149.062-149.062-149.062-74.531 74.531 149.062 149.062-149.062 149.062 74.531 74.531 149.062-149.062 149.062 149.062 74.531-74.531c0 0-149.062-149.062-149.062-149.062z" />
<glyph unicode="&#xe916;" glyph-name="volume-whole-on" horiz-adv-x="1428" d="M868.233 949.915c-21.306 10.653-47.939 15.98-69.246 0l-484.719-255.676v-490.045l484.719-261.003c37.286-15.98 79.899-5.327 95.878 31.96 5.327 10.653 10.653 21.306 10.653 31.96v884.212c0 21.306-10.653 47.939-37.286 58.592zM0 614.34v-330.248c0-37.286 31.959-69.246 69.246-69.246h159.797v468.739h-159.797c-37.286 0-69.246-31.96-69.246-69.246zM1075.969 662.279l-37.286-79.899c37.286-31.959 58.592-79.899 58.592-133.165 0-58.592-10.653-111.858-58.592-143.818l37.286-63.919c58.592 53.266 90.552 122.511 90.552 207.737 5.326 85.225-31.96 159.797-90.552 213.063zM1219.787 800.77l-47.939-69.246c69.246-74.572 117.185-170.451 117.185-282.309s-47.939-213.063-122.511-287.635l47.939-69.246c90.552 90.552 143.818 213.063 143.818 351.554 0 143.818-53.266 266.329-138.491 356.881z" />
<glyph unicode="&#xe917;" glyph-name="support" horiz-adv-x="1018" d="M873.153 138.047c-69.918 0-69.918-105.703 0-105.703 70.194 0 70.744 105.703 0 105.703zM873.153 63.725c-28.353 0-28.628 42.942 0 43.217 28.628 0 28.903-43.217 0-43.217zM969.497 188.146l-315.183 284.628 278.847 278.847c4.68 1.376 61.385 31.656 65.789 34.133 17.342 9.084 21.196 32.757 7.157 46.796l-67.991 67.991c-14.039 14.039-37.437 10.46-46.796-7.157-2.477-4.404-32.757-61.11-34.133-65.789l-131.578-131.854c-11.837-14.589 7.432-33.583 22.022-22.022l120.843 120.843 31.656-31.656-308.852-308.852-31.656 31.656 134.882 134.882c15.69 13.488-4.68 37.161-20.37 23.673l-99.372-99.372-106.529 96.069c43.492 125.523-22.847 262.606-148.37 306.099-85.333 29.729-202.323 3.303-170.667-28.353l123.045-123.045c7.432-7.432 7.432-19.819 0-27.252l-79.828-79.828c-7.432-7.432-19.819-7.432-27.252 0l-123.045 123.045c-46.245 46.245-99.923-234.804 112.585-316.284 51.475-19.819 107.905-21.196 160.482-4.404l82.305-90.013c-14.193-27.563-42.45-46.088-75.033-46.088-11.142 0-21.778 2.166-31.51 6.1l0.564-0.202c-1.669 0.654-3.602 1.033-5.624 1.033-4.359 0-8.306-1.762-11.168-4.612l0.001 0.001-192.138-191.862c-124.697-124.697 63.587-312.981 188.284-188.284l191.862 191.862c4.404 4.404 5.781 11.011 3.578 16.791-26.976 68.817 41.566 136.258 109.557 109.557 5.781-2.202 12.387-0.826 16.791 3.578 42.942 42.942 85.058 68.817 20.645 133.23l18.718 18.718 316.559-285.729c111.484-101.024-51.2-264.258-152.774-153.875l-235.63 257.376c-14.039 15.415-37.161-5.781-23.123-21.196l235.355-257.376c126.624-139.286 343.535 67.441 197.092 198.194zM887.467 819.613l30.004 56.981 64.413-64.413-56.705-30.004-37.712 37.437zM330.873 519.57c-2.905 3.133-7.043 5.087-11.638 5.087-1.948 0-3.814-0.351-5.538-0.994l0.11 0.036c-158.555-59.183-317.11 85.058-276.095 247.467l104.877-104.877c19.819-19.819 51.751-19.819 71.57 0l79.828 79.828c19.819 19.819 19.819 51.751 0 71.57l-104.602 104.877c166.262 42.116 308.852-122.77 245.54-280.499-2.477-6.056-0.826-12.938 4.129-17.342l113.135-102.125-14.865-14.865-15.415 15.415c-22.572 22.572-58.908 22.572-81.48 0-66.89-66.615-32.757-30.555-34.133-85.884l-75.424 82.305zM577.239 327.708c-87.811 25.325-169.015-55.88-143.69-143.69l-184.981-184.981c-95.243-95.243-239.209 48.723-143.966 143.966l184.981 184.981c88.361-25.6 168.74 56.981 143.69 143.69 22.847 22.847 43.492 52.301 66.615 29.454l106.804-106.804c22.847-23.123-6.606-43.768-29.454-66.615zM298.942 268.8l-148.37-148.37c-12.662-14.589 7.432-34.684 22.022-22.022l148.37 148.37c15.14 15.14-7.983 36.060-22.022 22.022zM353.72 214.022s-111.209-111.484-148.37-148.37c-15.69-15.69 6.056-37.987 22.022-22.022l148.37 148.37c14.039 13.763-7.708 36.335-22.022 22.022z" />
<glyph unicode="&#xe918;" glyph-name="help2" horiz-adv-x="975" d="M81.313 526.331c-0.73 0.024-1.589 0.038-2.45 0.038-43.576 0-78.901-35.325-78.901-78.901 0-0.862 0.014-1.72 0.041-2.575l-0.003 0.125v-352.356c0-98.66 71.284-87.547 107.062-87.547-9.758-37.946-20.87-58.274-7.86-69.116 58.545 22.226 116.006 47.161 171.841 75.35h433.669c70.471 0 54.209 44.18 54.209 433.669 0.022 0.688 0.034 1.498 0.034 2.31 0 42.843-34.088 77.724-76.621 79l-0.117 0.003h-600.902zM693.328 38.725h-425.537c-6.234 0-127.119-57.19-132.811-59.9 17.347 68.032 19.786 59.9-66.948 59.9-28.188 0-40.927 25.749-40.927 53.938v352.356c1.084 29.544 24.665 53.124 54.209 54.209h596.294c29.544-1.084 53.124-24.665 54.209-54.209 0-360.487 14.636-406.293-38.488-406.293zM651.587 418.998h-541.815c-22.226 0-22.226-33.609 0-33.609h541.815c22.226 0 22.226 33.609 0 33.609zM651.587 234.147h-541.815c-22.226 0-22.226-33.609 0-33.609h541.815c22.226 0 22.226 33.609 0 33.609zM894.442 960h-298.147c-0.73 0.024-1.589 0.038-2.45 0.038-43.576 0-78.901-35.325-78.901-78.901 0-0.862 0.014-1.72 0.041-2.575l-0.003 0.125v-216.834c-0.022-0.688-0.034-1.498-0.034-2.31 0-42.843 34.088-77.724 76.621-79l0.117-0.003c16.534-0.542 71.826 0.813 88.36 0l134.708-66.677c10.842-5.15 20.87 2.439 21.141 14.636v52.040h58.545c45.264-1.626 82.126 35.507 80.5 80.5v217.647c0 46.89-33.88 81.313-80.5 81.313zM948.65 661.853c-1.067-29.499-24.709-53.141-54.109-54.206l-0.099-0.003c-99.744 0-87.818 10.3-88.631-52.311-5.421 2.439-115.735 52.311-121.698 52.311h-87.818c-29.499 1.067-53.141 24.709-54.206 54.109l-0.003 0.099v216.834c1.084 29.544 24.665 53.124 54.209 54.209h298.147c28.188 0 54.209-26.020 54.209-54.209v-216.834zM749.163 901.184c-40.267 0-72.911-32.643-72.911-72.911v0c0-22.226 33.609-22.226 33.609 0 0 21.683 17.618 39.301 39.301 39.301 39.572 0 54.209-51.769 20.87-72.639-25.478-14.365-40.927-41.741-39.843-71.013 0.813-22.226 34.151-21.412 33.609 1.084-0.542 16.805 8.402 32.525 23.31 40.927l0.813 0.542c62.069 38.488 34.151 134.979-38.759 134.708zM729.918 674.321c0-22.226 33.609-22.226 33.609 0s-33.609 22.226-33.609 0zM651.587 326.302h-541.815c-22.226 0-22.226-33.609 0-33.609h541.815c22.226 0 22.226 33.609 0 33.609zM651.587 146.058h-541.815c-22.226 0-22.226-33.609 0-33.609h541.815c22.226 0 22.226 33.609 0 33.609z" />
<glyph unicode="&#xe919;" glyph-name="user" horiz-adv-x="848" d="M425.104 128.957c-15.235-0.034-27.541-12.409-27.506-27.644s12.409-27.541 27.644-27.506 27.541 12.409 27.506 27.644c0 7.273-2.895 14.27-8.066 19.406-5.17 5.205-12.236 8.1-19.578 8.1zM659.044 340.974h-83.415v91.722c17.683 19.027 32.573 40.501 44.189 63.733 33.125 10.927 58.149 38.364 65.939 72.385 17.958 50.842 7.066 96.306-23.921 110.3v10.341c0 16.338 11.754 123.329-54.392 198.644-47.257 50.049-114.195 71.833-182.995 71.902-68.627 0.069-135.394-21.784-182.271-71.902-43.534-56.563-62.492-128.293-52.599-198.989v-8.445c-33.917-11.995-45.051-59.011-26.438-111.782 7.893-34.434 33.573-62.009 67.318-72.385 12.064-24.128 27.299-46.533 45.292-66.594v-88.93h-84.587c-105.027-0.103-190.371-84.862-191.164-189.889v-97.65c0.31-10.823 6.756-20.509 16.614-24.99 178.962-84.931 379.847-112.265 574.975-78.175 84.483 13.546 166.312 40.26 242.557 79.106 8.652 4.929 13.925 14.167 13.788 24.128v97.65c0.241 104.578-84.311 189.544-188.889 189.82zM425.104 32.306c-40.57 53.048-78.382 108.163-113.299 165.106 61.286-62.561 161.659-63.629 224.22-2.344 0.793 0.758 1.586 1.551 2.344 2.344-34.917-56.943-72.695-112.058-113.265-165.106zM424.346 362.173c33.711 0.276 66.801 9.169 96.134 25.783v-74.763c0.069-6.79 2.62-13.339 7.204-18.372-7.066-51.324-50.876-89.55-102.683-89.619-50.91 0-94.514 36.502-103.406 86.62 6.204 5.377 9.617 13.27 9.238 21.474v73.177c28.713-15.614 60.837-23.956 93.514-24.301zM284.368 851.871c36.813 37.502 88.171 52.668 140.736 52.599 52.944-0.069 104.682-15.27 141.943-52.875 24.128-29.643 38.708-65.904 41.776-103.992-13.27 18.337-28.161 35.434-44.534 51.048-4.998 4.688-11.513 7.445-18.372 7.687h-241.592c-6.584-0.241-12.857-2.792-17.786-7.17-15.27-13.546-29.264-28.471-41.811-44.568 3.275 35.641 17.097 69.489 39.639 97.271zM255.966 552.372c-5.894 1.827-12.202 1.62-17.958-0.586-10.892 9.307-18.889 21.612-22.922 35.365-2.792 7.79-4.619 15.89-5.377 24.128 4.102-3.826 9.134-6.515 14.615-7.79 15.304 0.172 27.61 12.685 27.575 27.989 0 45.499 40.501 95.685 63.043 119.814h219.946c22.749-24.128 63.388-73.763 63.388-119.814-0.034-15.304 12.271-27.816 27.575-27.989 5.274 1.413 10.134 4.067 14.132 7.79-0.896-8.169-2.551-16.235-4.895-24.128-4.033-13.788-12.064-26.093-23.060-35.365-13.512 4.481-28.23-2.034-33.952-15.063-33.193-74.694-90.205-119.297-152.49-119.297s-119.469 44.809-152.697 119.745c-3.206 7.238-9.376 12.788-16.924 15.201v0zM55.15 151.085c0.793 74.591 61.423 134.67 136.014 134.773h24.128c1.689-24.128 16.097-72.385 95.754-189.372 29.023-42.569 56.908-81.174 74.418-104.199-114.092 5.446-226.15 32.228-330.384 78.899v79.899h0.069zM792.783 70.359c-67.145-30.987-138.048-53.013-210.949-65.491-39.088-6.859-78.589-11.133-118.263-12.719 17.51 23.025 46.361 61.803 75.452 104.509 79.692 116.78 94.169 165.037 95.892 189.165h24.128c74.108-0.379 133.946-60.665 133.739-134.773v-80.692z" />
<glyph unicode="&#xe91a;" glyph-name="allert-cross" horiz-adv-x="1125" d="M1084.713 759.459l-339.528-311.506 339.528-311.413c124.976-110.218-68.186-269.567-182.794-168.129l-339.247 311.88-339.434-311.506c-114.515-101.345-307.583 58.191-182.794 168.129l339.434 311.413-339.528 311.506c-124.416 110.405 68.559 269.193 182.794 167.662l339.528-311.506 339.528 311.413c114.421 101.625 307.209-58.098 182.514-167.942z" />
<glyph unicode="&#xe91b;" glyph-name="arrows" horiz-adv-x="1339" d="M994.855-64.788l-344.222 344.222h241.034v230.006c0 144.935 218.978 144.935 218.978 0v-229.218h228.431l-344.222-345.009zM1001.157 728.418c-147.298 0-147.298 223.705 0 223.705 145.723 0.788 144.935-223.705 0-223.705zM460.012 386.56c0-144.935-218.978-144.935-218.978 0v230.006h-240.246l344.222 343.434 344.222-344.222h-228.431v-229.218zM351.311 169.945c144.935 0 146.511-226.855-1.575-226.855-144.148 0-145.723 226.855 1.575 226.855z" />
<glyph unicode="&#xe91c;" glyph-name="adjustments" horiz-adv-x="1025" d="M568.061-64h-106.021c-20.215 0-26.057 0-81.030 139.2l-36.762 15.268c-113.1-52.456-126.747-52.456-132.547-52.456-8.271 0.009-15.783 3.256-21.336 8.542l0.013-0.012-74.974 75.016c-14.926 15.012-18.765 18.893 40.685 156.686l-14.799 35.738c-139.925 51.177-139.925 57.36-139.925 78.684v106.149c0 21.324 0 26.697 139.413 81.797l14.799 35.824c-62.734 135.234-58.427 139.541-43.372 154.724l75.102 74.974c5.493 5.195 12.893 8.423 21.047 8.529h0.021c5.459 0 19.618 0 134.68-49.599l36.506 15.182c51.177 139.755 57.659 139.755 77.916 139.755h106.021c20.129 0 26.015 0 81.030-139.285l36.634-15.14c113.058 52.328 126.662 52.328 132.59 52.328 7.847-0.128 15.353-3.156 21.068-8.529l75.144-74.888c14.628-14.756 18.765-18.935-40.685-156.813l14.799-35.952c139.925-51.177 139.925-57.147 139.925-78.471v-106.149c0-21.324 0-26.697-139.499-81.882l-14.713-35.824c62.777-135.021 58.427-139.456 43.5-154.638l-75.23-75.144c-5.521-5.174-12.927-8.395-21.084-8.529h-0.027c-5.374 0-19.447 0-134.509 49.684l-36.634-15.14c-51.262-139.627-57.232-139.627-77.746-139.627zM477.307-6.043h75.144c9.979 21.878 29.299 71.349 44.779 114.038 2.792 7.591 8.495 13.544 15.72 16.605l0.187 0.070 59.109 24.522c3.126 1.317 6.76 2.082 10.573 2.082 4.043 0 7.886-0.86 11.354-2.408l-0.177 0.071c42.647-18.424 92.715-39.15 115.446-46.912l52.584 52.712c-8.529 22.774-29.853 71.007-48.746 111.65-1.721 3.651-2.726 7.931-2.726 12.445 0 4.063 0.814 7.935 2.287 11.463l-0.073-0.197 24.352 59.109c2.987 7.219 8.648 12.824 15.716 15.669l0.191 0.068c42.647 17.059 92.63 37.828 114.508 48.362v73.737c-22.134 10.065-71.562 29.171-114.081 44.609-7.617 2.834-13.577 8.599-16.605 15.889l-0.070 0.189-24.352 59.194c-1.455 3.395-2.301 7.345-2.301 11.493s0.846 8.099 2.375 11.689l-0.074-0.195c18.21 41.965 38.382 91.606 46.485 114.678l-52.627 52.541c-22.56-8.274-71.477-29.853-112.802-49.087-3.445-1.669-7.493-2.645-11.769-2.645-3.834 0-7.484 0.784-10.8 2.201l0.179-0.068-59.066 24.394c-7.225 3.042-12.82 8.762-15.627 15.885l-0.067 0.193c-16.846 42.647-37.615 92.672-48.234 114.38h-75.144c-10.022-21.921-29.299-71.391-44.737-113.996-2.748-7.64-8.464-13.634-15.721-16.691l-0.186-0.070-58.938-24.522c-3.216-1.394-6.961-2.206-10.896-2.206s-7.68 0.811-11.078 2.275l0.182-0.070c-42.647 18.466-92.885 39.107-115.574 46.912l-52.627-52.541c8.529-22.816 29.853-71.050 48.703-111.778 1.731-3.648 2.742-7.927 2.742-12.441 0-4.065-0.82-7.939-2.303-11.466l0.073 0.195-24.479-59.109c-2.969-7.217-8.617-12.824-15.675-15.669l-0.19-0.068c-42.647-17.059-92.544-37.657-114.337-48.234v-73.737c22.006-10.15 71.477-29.341 114.038-44.822 7.55-2.885 13.461-8.615 16.518-15.845l0.071-0.19 24.309-59.066c1.38-3.312 2.182-7.16 2.182-11.194 0-4.23-0.881-8.254-2.47-11.899l0.075 0.192c-18.21-42.007-38.382-91.649-46.443-114.678l52.584-52.584c22.518 8.529 71.434 29.853 112.759 49.087 3.448 1.659 7.498 2.629 11.773 2.629 3.831 0 7.48-0.778 10.798-2.185l-0.181 0.068 59.109-24.479c7.216-2.998 12.803-8.696 15.586-15.801l0.066-0.191c16.931-42.818 37.743-92.63 48.404-114.252h0.213zM512.619 264.298c-0.177-0.001-0.386-0.001-0.596-0.001-101.468 0-183.724 82.256-183.724 183.724s82.256 183.724 183.724 183.724c101.258 0 183.383-81.915 183.723-183.093v-0.545c0 0 0-0.001 0-0.001 0-101.275-81.906-183.42-183.090-183.808h-0.037zM512.619 573.873c-69.188-0.387-125.127-56.565-125.127-125.807 0-69.482 56.327-125.809 125.809-125.809s125.809 56.327 125.809 125.809c0 0.014 0 0.029 0 0.043v-0.002c-0.315 69.526-56.749 125.766-126.32 125.766-0.060 0-0.121 0-0.181 0h0.009z" />
<glyph unicode="&#xe91d;" glyph-name="safety" horiz-adv-x="878" d="M862.329 783.253c-156.756 43.74-293.667 103.065-420.104 178.172l7.913-4.352c-3.149 1.849-6.936 2.942-10.978 2.942s-7.829-1.092-11.082-2.998l0.104 0.056c-118.571-71.33-255.54-130.701-400.443-171.029l-11.748-2.791c-9.247-2.56-15.928-10.889-15.955-20.782v-220.114c-0.031-2.32-0.048-5.059-0.048-7.802 0-178.548 74.112-339.786 193.252-454.63l0.193-0.185c94.961-92.545 205.583-143.74 245.763-143.74s150.802 51.231 245.763 143.74c119.333 115.029 193.446 276.267 193.446 454.815 0 2.743-0.017 5.482-0.052 8.217l0.004-0.415v220.038c0 0.016 0 0.034 0 0.053 0 9.932-6.729 18.292-15.877 20.77l-0.151 0.035zM834.921 542.357c0.030-2.201 0.047-4.8 0.047-7.403 0-166.591-69.117-317.039-180.24-424.232l-0.177-0.169c-93.387-90.972-193.251-131.371-215.427-131.371s-122.076 40.253-215.463 131.371c-111.3 107.408-180.415 257.895-180.415 424.525 0 2.56 0.016 5.116 0.049 7.668l-0.004-0.387v203.753c150.75 43.014 282.178 100.096 403.953 171.815l-8.009-4.362c113.628-66.713 244.946-123.746 383.303-164.313l12.494-3.14v-203.753h-0.11zM247.080 748.525c-3.298 8.067-11.085 13.647-20.175 13.647-2.854 0-5.579-0.55-8.075-1.549l0.146 0.052c-27.186-11.476-66.355-25.579-106.168-38.236l-11.883-3.261c-8.843-2.809-15.145-10.927-15.186-20.524v-83.219c0.685-11.43 10.122-20.44 21.663-20.44s20.978 9.010 21.661 20.38l0.003 0.060v67.442c48.33 15.379 83.408 28.187 117.958 42.032l-12.166-4.304c8.108 3.17 13.746 10.921 13.746 19.989 0 2.857-0.56 5.583-1.575 8.075l0.052-0.143zM288.248 744.427c0.002 0 0.003 0 0.005 0 3.137 0 6.117 0.674 8.803 1.884l-0.135-0.055h0.403c7.613 3.404 12.822 10.911 12.822 19.634 0 3.117-0.665 6.080-1.861 8.752l0.018-0.026c-3.566 7.591-11.147 12.752-19.934 12.752-3.124 0-6.096-0.653-8.787-1.829l0.141 0.055h-0.329c-7.689-3.361-12.965-10.901-12.965-19.672 0-3.047 0.637-5.946 1.784-8.569l-0.054 0.138 0.073-0.22c3.473-7.634 11.034-12.845 19.811-12.845 0.072 0 0.144 0 0.216 0.001h-0.011zM697.219 265.453c-3.343 2.202-7.442 3.513-11.848 3.513-7.534 0-14.173-3.833-18.073-9.655l-0.050-0.079c-19.206-28.972-39.685-54.252-62.31-77.426l0.101 0.103c-18.997-19.502-39.305-37.489-60.87-53.912l-1.34-0.979c-5.195-3.956-8.513-10.144-8.513-17.107 0-4.883 1.632-9.384 4.38-12.989l-0.038 0.052 0.11-0.146c4.056-5.124 10.277-8.382 17.258-8.382 4.926 0 9.473 1.622 13.136 4.361l-0.057-0.041c24.658 18.837 46.54 38.259 66.918 59.156l0.122 0.126c24.366 24.992 46.541 52.363 66.067 81.651l1.302 2.076c2.186 3.302 3.488 7.355 3.488 11.712 0 7.472-3.828 14.049-9.629 17.879l-0.080 0.050-0.073 0.037zM492.514 93.133l-1.244-0.732c-6.465-3.81-10.735-10.738-10.735-18.663 0-11.924 9.666-21.59 21.59-21.59 0.043 0 0.087 0 0.13 0h-0.007c0.009 0 0.019 0 0.030 0 4.026 0 7.801 1.073 11.055 2.948l-0.107-0.057 1.427 0.842c6.439 3.79 10.692 10.685 10.692 18.574 0 3.968-1.076 7.685-2.952 10.874l0.055-0.101-0.073 0.146c-3.839 6.496-10.807 10.784-18.775 10.784-4.030 0-7.804-1.097-11.040-3.008l0.101 0.055-0.146-0.073zM291.249 492.004c-12.723 12.796-30.339 20.716-49.804 20.716-38.785 0-70.227-31.442-70.227-70.227 0-19.32 7.801-36.817 20.426-49.514l-0.003 0.003 128.078-127.2c12.779-12.674 30.377-20.505 49.804-20.505s37.025 7.832 49.809 20.51l-0.005-0.005 267.134 265.56c12.206 12.623 19.728 29.841 19.728 48.816 0 38.803-31.456 70.26-70.26 70.26-19.121 0-36.458-7.638-49.126-20.030l0.013 0.013-217.22-215.903-78.347 77.505zM617.225 599.882c4.826 4.519 11.334 7.295 18.49 7.295 14.955 0 27.079-12.124 27.079-27.079 0-6.828-2.527-13.065-6.697-17.829l0.027 0.031-0.549-0.549-267.134-265.523c-4.919-4.881-11.695-7.898-19.175-7.898s-14.256 3.017-19.177 7.9l0.002-0.002-128.078 127.163c-4.38 4.794-7.063 11.203-7.063 18.238 0 14.955 12.124 27.079 27.079 27.079 7.081 0 13.527-2.718 18.353-7.168l-0.019 0.017 93.424-92.911c3.951-3.849 9.356-6.223 15.314-6.223s11.363 2.374 15.319 6.227l-0.005-0.005 232.809 231.235z" />
<glyph unicode="&#xe91e;" glyph-name="balance" horiz-adv-x="1170" d="M585.101 271.707c-12.77-0.838-22.811-11.401-22.811-24.309s10.041-23.472 22.738-24.306l0.073-0.004c12.77 0.838 22.811 11.401 22.811 24.309s-10.041 23.472-22.738 24.306l-0.073 0.004zM789.271 533.551c-17.294 40.612-44.869 74.025-79.511 97.93l-0.75 0.489c-34.721 23.9-77.682 38.173-123.976 38.173-31.138 0-60.767-6.457-87.623-18.105l1.426 0.551c-80.345-35.277-135.442-114.145-135.442-205.881 0-91.321 54.599-169.89 132.935-204.844l1.424-0.568c2.798-1.236 6.061-1.956 9.492-1.956 9.825 0 18.272 5.9 21.99 14.35l0.060 0.154 0.098 0.197c1.192 2.794 1.886 6.044 1.886 9.456 0 9.949-5.893 18.521-14.379 22.417l-0.154 0.063c-27.522 12.126-50.476 30.203-68.011 52.709l-0.291 0.388 42.271 24.605c22.949-26.616 56.711-43.362 94.384-43.362s71.435 16.746 94.248 43.201l0.136 0.161 42.222-24.605c-17.695-22.734-40.441-40.715-66.61-52.411l-1.102-0.44c-8.61-3.956-14.482-12.505-14.482-22.426 0-3.452 0.711-6.738 1.995-9.72l-0.061 0.16c3.783-8.668 12.279-14.616 22.164-14.616 3.406 0 6.647 0.706 9.585 1.98l-0.156-0.060 0.098 0.049c79.314 35.837 133.512 114.253 133.512 205.327 0 31.27-6.389 61.049-17.934 88.1l0.556-1.467zM459.764 446.548h-0.197c0-13.926 2.313-27.754 6.791-40.942l-42.222-24.605c-8.014 19.385-12.668 41.895-12.668 65.492 0 60.023 30.111 113.014 76.051 144.691l0.59 0.384c20.616 14.213 45.247 24.171 71.853 28.037l0.927 0.111v-49.209c-58.105-12.137-101.126-62.936-101.126-123.783 0-0.062 0-0.124 0-0.186v0.010zM585.101 368.748c-0.204-0.002-0.445-0.003-0.686-0.003-42.968 0-77.8 34.832-77.8 77.8s34.832 77.8 77.8 77.8c42.725 0 77.405-34.439 77.797-77.071v-0.726c0-0.073 0-0.16 0-0.247 0-42.676-34.47-77.302-77.088-77.553h-0.024zM745.868 381.001l-42.222 24.605c4.304 12.202 6.791 26.273 6.791 40.925 0 60.958-43.044 111.863-100.396 123.978l-0.827 0.146v49.209c14.91-2.067 29.476-6.102 43.354-12.007 62.864-27.742 105.945-89.527 105.945-161.375 0-23.591-4.645-46.097-13.070-66.654l0.425 1.173zM860.674 563.864h-0.197c-23.337 54.732-60.531 99.757-107.246 131.959l-1.014 0.661c-46.821 32.237-104.755 51.489-167.186 51.489-41.998 0-81.962-8.712-118.182-24.428l1.922 0.743c-108.378-47.637-182.688-154.051-182.688-277.82 0-103.354 51.818-194.606 130.891-249.192l1.013-0.661c46.802-32.231 104.716-51.478 167.126-51.478 42.023 0 82.007 8.727 118.241 24.467l-1.919-0.743c108.389 47.784 182.679 154.286 182.679 278.139 0 42.182-8.617 82.352-24.188 118.844l0.751-1.979zM816.188 348.179c-19.579-45.922-50.789-83.697-89.989-110.708l-0.851-0.555c-39.286-27.020-87.886-43.155-140.255-43.155-35.21 0-68.717 7.294-99.091 20.453l1.615-0.623c-90.907 39.946-153.24 129.199-153.24 233.011 0 86.702 43.479 163.248 109.823 209.024l0.851 0.555c39.286 27.020 87.886 43.155 140.255 43.155 35.21 0 68.717-7.294 99.091-20.453l-1.615 0.623c90.812-40.107 153.042-129.378 153.042-233.184 0-35.446-7.256-69.198-20.364-99.85l0.63 1.657 0.098 0.049zM783.021 960h-0.295c-12.77-0.838-22.811-11.401-22.811-24.309s10.041-23.472 22.738-24.306l0.073-0.004h0.295c12.915 0.639 23.145 11.265 23.145 24.282 0 13.068-10.311 23.728-23.242 24.286l-0.050 0.002 0.148 0.049zM1146.138 959.902s-0.049 0 0 0l0.295 0.098h-285.415c-12.77-0.838-22.811-11.401-22.811-24.309s10.041-23.472 22.738-24.306l0.073-0.004h261.302v-278.821l-68.893-21.111c-10.002-3.164-17.125-12.362-17.125-23.224 0-0.018 0-0.037 0-0.055v0.003-283.151c0-0.016 0-0.034 0-0.053 0-10.861 7.123-20.059 16.953-23.176l0.172-0.047 68.893-21.111v-276.016h-1074.292v150.827h48.176c13.329 0.056 24.113 10.874 24.113 24.211 0 0.035 0 0.069 0 0.104v-0.005 165.245c0 0.029 0 0.064 0 0.099 0 13.337-10.784 24.155-24.107 24.211h-48.181v194.476h48.176c13.329 0.056 24.113 10.874 24.113 24.211 0 0.035 0 0.069 0 0.104v-0.005 165.295c0 0.029 0 0.064 0 0.099 0 13.337-10.784 24.155-24.107 24.211h-48.181v153.632h656.553c12.77 0.838 22.811 11.401 22.811 24.309s-10.041 23.472-22.738 24.306l-0.073 0.004h-680.469c-0.047 0-0.102 0.001-0.158 0.001-6.606 0-12.579-2.712-16.865-7.083l-0.004-0.004c-4.357-4.416-7.057-10.477-7.086-17.169v-975.387c0-0.029 0-0.064 0-0.099 0-13.337 10.784-24.155 24.107-24.211h1121.981c13.329 0.056 24.113 10.874 24.113 24.211 0 0.035 0 0.069 0 0.104v-0.005 975.332c0 0.029 0 0.064 0 0.099 0 13.31-10.762 24.106-24.058 24.162h-0.005zM48.176 300.593h24.113v-116.676h-24.113v116.676zM48.176 709.032h24.113v-116.676h-24.113v116.676zM1122.321 311.321l-37.744 11.564v247.13l37.744 11.564v-270.258z" />
<glyph unicode="&#xe91f;" glyph-name="arrows-bended" horiz-adv-x="1235" d="M388.647 720.225h476.157v-187.245l369.84 213.51-369.84 213.51v-181.279h-476.157c-171.685 0-311.344-139.659-311.344-311.344h58.496c0.029 139.425 113.424 252.849 252.849 252.849zM923.299 858.685l194.353-112.195-194.353-112.195v224.39zM845.997 175.804h-476.157v187.245l-369.84-213.51 369.84-213.539v181.308h476.157c171.656 0 311.344 139.63 311.344 311.315h-58.496c-0.029-139.396-113.453-252.819-252.849-252.819zM311.344 37.344l-194.353 112.195 194.353 112.195v-224.39z" />
<glyph unicode="&#xe920;" glyph-name="notifications" horiz-adv-x="1133" d="M969.789-64h-806.932c-0.28-0.002-0.61-0.003-0.941-0.003-59.594 0-111.622 32.389-139.443 80.524l-0.414 0.776c-13.846 23.283-22.030 51.334-22.030 81.297s8.184 58.015 22.439 82.041l-0.409-0.744 403.447 698.811c29.375 50.909 82.010 81.297 140.798 81.297s111.423-30.388 140.798-81.297l403.485-698.811c13.846-23.283 22.030-51.334 22.030-81.297s-8.184-58.015-22.439-82.041l0.409 0.744c-28.234-48.911-80.263-81.3-139.856-81.3-0.331 0-0.662 0.001-0.992 0.003h0.051zM566.304 884.968c-0.151 0.001-0.33 0.001-0.509 0.001-32.091 0-60.108-17.443-75.088-43.365l-0.223-0.418-403.447-698.811c-15.832-27.387-15.832-60.176 0-87.562s44.156-43.781 75.82-43.781h806.932c31.664 0 60.026 16.395 75.82 43.781s15.832 60.176 0 87.562l-403.485 698.811c-15.202 26.34-43.219 43.783-75.31 43.783-0.179 0-0.358-0.001-0.537-0.002h0.028zM571.144 277.658h-17.633c-3.977 64.753-22.735 128.305-37.666 191.219-13.393 56.424-53.76 195.496 51.622 186.942 93.94-7.616 53.498-129.655 40.105-185.217-15.419-64.19-31.063-126.804-36.428-192.945zM562.74 220.447c83.473 0 83.923-130.068 0-130.068s-83.511 130.068 0 130.068z" />
<glyph unicode="&#xe921;" glyph-name="etz" horiz-adv-x="1025" d="M511.596 674.032l112.094-189.159-56.047-55.41h-111.457l-55.41 55.41 110.82 189.159zM969.017 216.248c-178.956-352.116-673.088-378.28-887.602-45.207-216.055 335.467 21.979 788.959 430.818 788.959 384.451 0 627.976-406.896 456.784-743.752zM838.325 445.386l-326.092 461.115-326.092-461.115 326.092-455.383 326.092 455.383z" />
<glyph unicode="&#xe922;" glyph-name="steemit" horiz-adv-x="1005" d="M885.475 650.355c-43.459 43.459-92.35 73.337-143.958 95.066 29.878 89.634 138.525 122.228 138.525 122.228s-255.321 133.093-535.088 78.769c-95.066-13.581-184.7-70.621-249.889-146.674-141.241-165.687-122.228-412.859 43.459-554.101 24.446-21.729 81.485-57.040 84.202-57.040-38.027-95.066-157.538-122.228-157.538-122.228s157.538-97.782 369.401-124.944c57.040-8.149 116.796-8.149 176.552-2.716 97.782 8.149 195.565 59.756 271.618 133.093 160.255 160.255 162.971 418.292 2.716 578.546zM812.138 136.997c-59.756-59.756-149.39-95.066-220.011-100.499-48.891-5.432-100.499-5.432-152.106 0-73.337 8.149-127.66 29.878-179.268 48.891 27.162 24.446 54.324 59.756 65.188 92.35 8.149 19.013 5.432 38.027-2.716 57.040-57.040 116.796-32.594 255.321 59.756 344.955 67.905 65.188 160.255 95.066 252.605 84.202 67.905-8.149 130.377-38.027 179.268-86.918 122.228-122.228 116.796-323.225-2.716-440.021z" />
<glyph unicode="&#xe923;" glyph-name="cards" horiz-adv-x="972" d="M968.65 651.946l-216.835-667.555c-10.459-32.223-45.739-54.982-85.843-43.529l-179.493 61.095-193.781-62.9c-34.543-11.232-73.469 9.575-84.407 44.008l-205.050 645.644c-11.232 34.507 7.66 73.764 42.498 85.106l131.802 42.756 0.037 135.411c0 37.526 30.529 68.019 68.019 68.019h502.388c36.937 0 68.019-31.045 68.019-68.019l-0.037-119.024 109.044-35.39c33.844-11.343 54.687-51.41 43.64-85.622zM678.714-21.208c36.863-11.748 40.914 36.016 63.71 106.245l-192.419-62.458c0 0 128.709-43.787 128.709-43.787zM58.112 675.736c-14.031-4.53-21.138-21.102-16.793-34.801l205.050-645.644c4.714-14.51 19.997-22.722 33.991-18.192l465.893 151.247c13.81 4.493 20.954 21.654 16.756 34.801l-205.050 645.644c-4.566 14.547-20.144 22.685-33.954 18.192l-465.893-151.247zM747.985 919.97h-502.388c-15.467-0.037-27.988-12.521-28.025-27.988l-0.037-122.412 294.097 95.455c34.985 11.379 72.843-8.36 84.407-43.971l179.824-566.135 0.147 637.063c0 15.099-12.852 27.988-28.025 27.988zM912.636 699.489l-96.67 31.413-0.11-419.786 114.715 353.204c4.493 14.657-3.425 30.198-17.935 35.169zM692.377 678.387v96.007c1.51 24.895 38.484 25.079 39.994 0v-96.007c0-26.368-39.994-26.589-39.994 0zM691.53 853.571c-1.178 27.804 41.246 27.767 40.030-0.037-1.142-25.484-38.963-25.337-40.030 0.037zM440.888 340.098l16.056-48.059 28.393 9.464c24.858 7.991 37.453-29.351 12.668-37.931l-94.681-31.671c-25.41-7.955-37.674 29.645-12.705 37.968l28.393 9.464-16.056 48.096c-42.535-45.481-109.817-18.008-129.224 40.215-28.467 85.18 56.529 191.314 60.138 195.807 4.898 6.040 12.852 8.691 20.402 6.776 5.561-1.363 137.253-35.096 165.72-120.312 20.107-60.064-19.518-120.018-79.104-109.817zM357.107 527.84c-89.783-125.284-34.912-194.518 1.915-182.218 30.64 10.238 19.26 58.444 45.886 58.628 23.201 0.147 22.648-35.722 60.175-23.164 36.827 12.226 39.441 100.463-107.976 146.754zM169.255 540.545c-79.472-1.915-79.14 121.859 0 119.907 75.494-1.878 75.936-118.066 0-119.907zM169.255 620.422c-26.441 0.037-26.441-39.92-0.037-39.92 0 0 0.037 0 0.037 0 26.331 0 26.552 39.883 0 39.92zM638.462 261.031c79.288 1.952 79.324-121.822 0-119.907-75.494 1.841-75.936 118.029 0 119.907zM638.462 181.155c26.441-0.037 26.441 39.92 0.037 39.92 0 0-0.037 0-0.037 0-26.331 0-26.552-39.883 0-39.92z" />
<glyph unicode="&#xe924;" glyph-name="dice" horiz-adv-x="1023" d="M1017.93 473.291l-174.983-481.111c-16.187-44.378-65.184-67.073-109.259-51.021l-480.672 175.118c-44.243 16.187-67.039 65.117-50.988 109.394 6.846 18.817 10.724 39.084 29.844 32.103 8.835-3.237 13.421-13.017 10.184-21.852-12.309-33.756-21.515-71.356 22.594-87.576l480.706-175.118c26.573-9.644 55.911 4.080 65.555 30.62l174.949 481.111c9.678 26.573-4.013 55.911-30.552 65.623l-245.226 89.329c-21.245 7.722-9.577 39.826 11.668 32.103l245.226-89.363c44.209-16.187 67.005-65.083 50.954-109.36zM405.472 251.469c13.354-24.077 46.57-23.234 59.351-0.034 10.892 19.795 40.77 3.338 29.878-16.456-25.73-47.143-93.275-47.076-119.072-0.067-9.172 19.255 18.378 34.531 29.844 16.557zM596.811 277.333h-511.562c-47.076 0.067-85.215 38.274-85.249 85.35v512c0.067 47.076 38.173 85.215 85.249 85.316h511.562c47.076-0.101 85.182-38.241 85.249-85.316v-512c-0.034-47.076-38.173-85.283-85.249-85.35zM647.967 874.684c-0.034 28.259-22.897 51.122-51.156 51.19h-511.562c-28.259-0.067-51.122-22.931-51.156-51.19v-512c0.034-28.259 22.897-51.156 51.156-51.224h511.562c28.259 0.067 51.122 22.965 51.156 51.224v512zM170.498 721.080c-55.607 0.067-87.171 62.858-55.776 107.472 27.079 38.443 83.664 38.746 111.147 0.607 32.036-44.479 0.641-108.011-55.371-108.079zM142.88 807.172c-13.421-21.919 1.517-50.785 27.618-51.965 26.843 1.18 41.512 31.361 26.843 53.179-13.86 20.57-41.849 19.39-54.461-1.214zM566.899 828.923c-27.483 38.139-84.069 37.836-111.147-0.573-31.429-44.614 0.169-107.404 55.776-107.505 56.012 0.067 87.407 63.6 55.371 108.079zM511.528 755.004c-26.134 1.147-41.040 30.046-27.618 51.932 12.646 20.604 40.601 21.818 54.461 1.248 14.669-21.818-0.034-51.999-26.843-53.179zM396.368 658.492c-27.483 38.139-84.069 37.836-111.114-0.573-31.429-44.614 0.169-107.404 55.776-107.505 55.978 0.067 87.374 63.6 55.338 108.079zM340.996 584.54c-26.134 1.147-41.040 30.046-27.618 51.932 12.646 20.604 40.601 21.818 54.461 1.248 14.669-21.818 0-51.999-26.843-53.179zM566.899 487.826c-27.483 38.139-84.069 37.836-111.147-0.573-31.429-44.614 0.169-107.404 55.776-107.505 56.012 0.067 87.407 63.6 55.371 108.079zM511.528 413.873c-26.134 1.147-41.040 30.046-27.618 51.932 12.646 20.604 40.601 21.818 54.461 1.248 14.669-21.818-0.034-51.999-26.843-53.179zM225.869 487.826c-27.483 38.139-84.069 37.836-111.147-0.573-31.429-44.614 0.169-107.404 55.776-107.505 56.012 0.067 87.407 63.6 55.371 108.079zM170.498 413.873c-26.134 1.147-41.040 30.046-27.618 51.932 12.646 20.604 40.601 21.818 54.461 1.248 14.669-21.818-0.034-51.999-26.843-53.179zM840.182 470.965c-27.483 38.139-84.069 37.836-111.147-0.573-31.429-44.614 0.169-107.404 55.776-107.472 56.012 0.034 87.407 63.566 55.371 108.045zM784.81 397.012c-26.134 1.147-41.040 30.046-27.618 51.932 12.646 20.604 40.601 21.818 54.461 1.248 14.669-21.818 0-51.965-26.843-53.179zM746.873 214.341c-27.483 38.139-84.069 37.836-111.147-0.573-31.429-44.614 0.169-107.404 55.776-107.505 56.012 0.067 87.407 63.6 55.371 108.079zM691.502 140.422c-26.134 1.147-41.040 30.046-27.618 51.932 12.646 20.604 40.601 21.818 54.461 1.248 14.669-21.818 0-51.999-26.843-53.179z" />
<glyph unicode="&#xe925;" glyph-name="roulette" d="M512.191-64c-428.752 0-665.753 497.617-400.634 830.455 198.238 248.942 570.411 259.014 782.002 22.815 292.092-326.085 63.638-853.27-381.368-853.27zM118.538 718.689c-215.75-312.846 6.791-748.542 393.614-748.542 378.468 0 603.565 419.71 403.267 734.007-184.083 288.887-601.962 297.166-796.881 14.536zM938.845 465.092c23.502 1.106 23.807-35.252 0-34.146h-51.62c-0.954-21.365-3.777-42.616-8.355-63.523l49.865-13.391c23.883-4.731 13.849-40.785-8.889-32.925l-49.788 13.353c-6.486-20.373-14.727-40.174-24.646-59.136l44.79-25.867c19.572-11.331 2.48-40.899-17.092-29.568l-44.79 25.905c-11.522-18.008-24.57-34.985-38.991-50.78l36.626-36.664c15.948-15.986-8.241-40.098-24.188-24.112l-36.55 36.626c-15.795-14.383-32.811-27.431-50.818-38.953l25.867-44.905c11.293-19.572-18.275-36.626-29.568-17.054v0l-25.829 44.829c-18.962-9.881-38.724-18.122-59.097-24.646l13.315-49.827c5.837-21.823-27.126-30.674-32.963-8.851l-13.353 49.903c-20.907-4.616-42.158-7.401-63.523-8.393v-51.62c0-22.586-34.146-22.586-34.146 0l0.038 51.62c-21.365 0.992-42.616 3.777-63.523 8.393l-13.391-49.903c-6.638-20.488-37.503-12.17-32.963 8.889l13.391 49.788c-20.373 6.524-40.174 14.765-59.136 24.646l-25.905-44.829c-11.903-17.245-38.572-1.831-29.568 17.092l25.943 44.867c-17.97 11.522-34.985 24.532-50.78 38.915l-36.664-36.588c-15.986-16.1-40.212 8.126-24.15 24.15l36.664 36.588c-14.383 15.795-27.431 32.773-38.953 50.78l-44.905-25.867c-19.572-11.293-36.626 18.275-17.054 29.568l44.829 25.829c-9.881 18.962-18.122 38.762-24.646 59.136l-49.903-13.353c-21.861-5.761-30.598 27.164-8.775 33.001l49.865 13.315c-4.578 20.907-7.363 42.158-8.355 63.523l-51.696 0.038c-22.586 0.038-22.548 34.184 0.038 34.146l51.658-0.038c0.954 21.365 3.777 42.616 8.355 63.485l-49.903 13.43c-21.823 5.837-12.972 38.801 8.851 32.963l49.827-13.391c6.486 20.373 14.727 40.136 24.646 59.097l-44.829 25.943c-19.534 11.293-2.442 40.823 17.092 29.53v0l44.867-25.943c11.522 18.008 24.532 35.024 38.915 50.818l-36.588 36.664c-15.986 15.986 8.165 40.098 24.15 24.112v0l36.588-36.626c15.795 14.421 32.811 27.431 50.818 38.953l-25.905 44.905c-9.691 19.152 17.855 35.024 29.568 17.054l25.829-44.829c18.962 9.881 38.762 18.16 59.136 24.646l-13.315 49.865c-5.837 21.785 27.088 30.598 32.925 8.813v0l13.391-49.865c20.869 4.578 42.12 7.401 63.485 8.355l0.038 51.658c0 22.586 34.108 22.586 34.108 0v-51.658c21.708-0.954 42.921-3.815 63.523-8.355l13.391 49.903c6.677 20.335 37.351 12.17 32.963-8.851l-13.391-49.827c20.373-6.486 40.174-14.727 59.136-24.646l25.867 44.79c11.293 19.572 40.861 2.518 29.568-17.054l-25.867-44.867c18.008-11.522 34.985-24.57 50.78-38.953l36.626 36.626c15.948 14.193 38.381-8.088 24.15-24.112l-36.626-36.626c14.383-15.757 27.393-32.773 38.953-50.818l44.867 25.905c19.572 11.293 36.626-18.275 17.054-29.568l-44.79-25.867c9.805-18.847 18.122-38.572 24.646-59.136l49.865 13.353c21.823 5.837 30.636-27.126 8.813-32.963l-49.903-13.353c4.54-20.602 7.401-41.815 8.393-63.523 0 0 51.62 0 51.62 0zM202.015 590.46c-103.545-224.486 61.043-483.768 310.176-483.768 251.384 0 415.742 263.478 308.077 488.269-125.368 261.723-497.464 257.488-618.253-4.502zM668.957 430.946h-55.893c-7.325-42.883-40.937-76.457-83.82-83.782v-55.893c54.443-19.458 39.754-99.272-17.054-99.272s-71.497 79.814-17.054 99.272v55.893c-42.883 7.325-76.495 40.899-83.82 83.782h-55.855c-19.458-54.443-99.272-39.754-99.272 17.054 0 56.77 79.776 71.497 99.272 17.092h55.855c7.363 42.883 40.937 76.457 83.82 83.782v55.893c-54.367 19.114-39.907 99.233 17.054 99.233 56.808 0 71.497-79.852 17.054-99.233v-55.893c42.883-7.325 76.457-40.899 83.82-83.782h55.893c19.152 54.29 99.233 39.869 99.233-17.092 0-56.923-80.119-71.459-99.233-17.054zM293.427 458.95c-5.074-6.104-5.303-14.994-0.343-21.403 10.187-13.124 31.361-5.341 30.56 11.293-0.725 15.566-20.259 22.052-30.216 10.11zM522.11 229.923c12.209 9.881 5.685 29.606-9.958 30.369-14.269-0.687-21.365-17.588-12.132-28.271 5.57-6.371 14.689-8.126 22.090-2.098zM496.587 661.346c-6.333-10.95 1.145-25.028 14.040-25.6 13.811-0.649 22.433 14.421 15.375 25.982-6.791 11.064-22.968 10.835-29.415-0.382zM452.788 481.612c-25.524-44.981 6.906-101.866 59.403-101.866 53.756 0 85.651 59.021 58.258 103.812-27.202 44.447-91.946 43.417-117.661-1.946zM699.097 448.801c-0.687-14.994 17.054-23.463 28.309-13.697 8.47 7.363 7.669 20.755-1.641 27.050-10.911 7.44-26.020 0.114-26.668-13.353z" />
<glyph unicode="&#xe926;" glyph-name="roulette-broken" horiz-adv-x="1139" d="M607.897-47.902c-0.159-2.178-0.266-3.852-0.239-4.383-315.584-68.722-607.313 174.049-607.658 495.769-0.319 277.225 221.812 506.395 502.517 507.643 0.558-11.237-21.57-393.895-21.57-393.895l173.677-174.395c0 0-40.59-361.566-46.302-425.507 17.665 47.816 134.973 407.709 134.973 407.709l-136.195 204.492c0 0 102.538 377.027 105.62 390.468 256.638-39.076 434.539-264.049 426.357-518.030-9.032-281.714-245.002-505.571-531.179-489.872zM33.577 448.027c-2.444-292.499 255.283-521.616 547.198-470.639l12.246 105.274c-16.417-4.171-33.073-7.465-49.941-9.351l3.108-51.375c1.434-22.527-32.222-24.386-33.498-2.125 0 0.053-3.108 51.243-3.108 51.296-21.039-0.425-42.051 0.983-62.851 4.171l-10.121-50.26c-4.357-22.208-37.429-15.354-32.887 6.721l10.121 50.26c-20.401 5.153-40.351 12.034-59.584 20.587l-22.686-45.93c-11.184-23.058-41.653-8.527-30.018 15.089 22.633 45.903 22.633 45.903 22.633 45.903-18.409 10.307-35.888 22.181-52.252 35.49l-33.657-38.492c-14.77-16.948-39.926 5.446-25.156 22.42l33.63 38.439c-15.115 14.796-28.902 30.841-41.254 48.002l-42.45-28.424c-18.648-12.485-37.19 15.753-18.542 28.238l42.476 28.45c-10.812 18.197-20.083 37.296-27.68 57.060l-48.294-16.39c-21.225-7.146-31.851 24.811-10.679 32.116l48.294 16.39c-5.738 20.428-9.776 41.281-12.060 62.373l-50.871-3.214c-22.367-1.302-24.253 32.329-2.072 33.816l50.791 3.214c-0.398 21.092 0.956 42.317 4.197 63.489l-49.755 10.121c-21.809 4.542-15.168 37.588 6.668 33.205l49.781-10.121c5.047 20.322 11.821 40.457 20.428 60.168l-45.451 22.819c-19.923 10.094-4.994 40.086 14.823 30.416 0.133-0.053 45.451-22.819 45.584-22.872 10.387 18.887 22.181 36.473 35.198 52.81l-38.067 33.923c-16.55 14.903 5.393 40.006 22.022 25.608 0.159-0.133 38.040-33.949 38.199-34.082 14.637 15.248 30.575 29.194 47.603 41.706l-28.105 42.795c-12.273 18.648 15.514 37.323 27.839 18.94 0.053-0.080 28.238-42.928 28.291-43.008 18.064 10.918 36.977 20.322 56.555 27.999l-16.204 48.745c-7.093 21.198 24.678 32.010 31.771 10.918 0 0 16.204-48.745 16.231-48.852 20.189 5.844 40.856 9.882 61.789 12.22l-0.106 1.647c2.178-0.823 4.675-0.903 7.013-1.328l6.508 102.272c-250.926-14.61-441.578-222.556-443.65-468.647zM490.855 509.549c-63.462-11.555-74.274-97.996-17.32-126.579 39.103-19.445 87.476 3.108 95.578 48.028 0 0-78.258 78.551-78.258 78.551zM584.786 384.007c-25.024-34.826-69.412-49.914-110.481-37.535l-24.492-49.702c39.209-41.095-7.836-105.46-58.123-80.941-0.133 0.053-0.239 0.106-0.372 0.186-50.419 25.661-27.441 102.565 28.45 95.817l24.466 49.702c-34.613 25.661-49.436 70.263-37.057 111.517l-49.224 24.652c-40.537-39.9-104.849 8.394-79.905 58.999 24.678 50.552 101.927 28.185 94.861-28.636l49.197-24.678c10.705 14.663 25.263 26.086 42.078 32.966l-10.466 10.493 14.796 232.623c-173.969-18.781-298.662-163.875-300.655-331.469-2.71-225.265 209.911-394.081 429.412-328.76l28.424 244.259-40.909 20.508zM421.23 276.74c-19.897 9.855-34.932-20.242-14.956-30.363 19.897-9.908 34.826 20.215 14.956 30.363zM330.593 549.263c-20.029 9.962-34.905-20.215-14.929-30.336 19.87-9.908 34.879 20.215 14.929 30.336zM699.65 478.496c-3.772 13.070-11.476 24.625-22.075 33.152l22.075-33.152zM635.816 574.366l10.041-15.062c12.857-1.249 25.635-4.702 37.482-11.104l33.604 43.964c-30.416 47.497 27.839 101.98 72.547 67.978 0.133-0.106 0.292-0.213 0.425-0.319 44.362-34.534 7.358-106.177-46.408-88.353l-33.604-43.937c23.934-26.431 32.302-63.462 22.101-97.624l35.49-53.341c47.311 30.974 102.087-28.238 67.712-73.158-21.411-28.078-64.817-25.874-82.402 4.41l-58.176-181.301c158.961 28.158 269.096 161.458 276.534 315.477 8.261 171.526-111.012 321.826-277.889 350.064 0 0-57.459-217.694-57.459-217.694zM748.847 606.164c17.745-13.76 38.199 12.99 20.534 26.83-17.665 13.734-38.173-12.937-20.534-26.83zM785.081 321.023c17.586-13.627 38.173 12.99 20.534 26.83-17.612 13.707-38.067-13.016-20.534-26.83zM727.888 923.208l-25.874-98.022c20.694-3.692 41.042-9.191 60.779-16.443l19.578 47.311c8.527 20.826 39.66 7.73 30.974-13.043l-19.604-47.338c18.754-8.926 37.004-19.525 54.483-31.904l31.054 40.59c13.574 17.851 40.271-2.842 26.564-20.694l-31.054-40.59c16.284-13.92 31.080-29.008 44.389-45.080l40.431 31.080c17.798 13.76 38.013-13.202 20.322-26.936l-40.378-31.027c12.060-17.586 22.447-36.074 31.213-55.227l47.072 19.525c20.747 8.527 33.312-22.739 12.724-31.372l-47.098-19.525c7.066-20.003 12.485-40.537 16.098-61.417l50.525 6.588c22.606 2.789 25.714-30.815 4.25-33.63l-50.525-6.535c1.753-21.119 1.62-42.397-0.213-63.542l50.472-6.88c22.659-3.081 17.054-36.499-4.489-33.577l-50.419 6.854c-3.692-20.906-9.191-41.44-16.39-61.417l46.833-19.737c20.64-8.819 7.544-39.9-12.963-31.266l-46.859 19.737c-8.846-18.94-19.392-37.349-31.665-55.015l40.165-31.319c17.639-13.867-2.842-40.59-20.561-26.83l-40.139 31.319c-13.601-16.204-28.557-31.186-44.708-44.841l30.761-40.803c13.442-17.772-13.282-38.439-26.724-20.534l-30.708 40.75c-17.453-12.22-35.782-22.712-54.749-31.558l19.286-47.55c8.394-20.747-22.712-33.551-31.054-12.884l-19.312 47.577c-19.79-7.146-40.139-12.618-60.832-16.337l6.429-51.003c2.922-22.155-30.522-26.591-33.312-4.41-0.027 0.292-1.939 15.328-1.966 15.62l-21.437-66.862c248.057 7.040 447.635 207.148 456.242 456.959 8.129 235.439-153.86 437.62-377.611 481.239z" />
<glyph unicode="&#xe927;" glyph-name="medium" horiz-adv-x="1287" d="M152.94 751.115c0.162 1.508 0.254 3.257 0.254 5.028 0 14.71-6.366 27.933-16.493 37.064l-0.044 0.039-120.375 145.095v21.657h373.863l289.008-633.852 254.078 633.852h353.98v-21.657l-100.492-98.719c-7.236-5.568-11.853-14.231-11.853-23.973 0-1.744 0.148-3.454 0.432-5.117l-0.025 0.179v-725.477c-1.828-10.963 2.579-22.033 11.446-28.858l100.492-98.719v-21.657h-505.684v21.657l104.092 101.137c10.211 10.211 10.211 13.22 10.211 28.912v586.347l-289.653-738.054h-39.069l-337.212 738.054v-493.002c-0.39-2.738-0.612-5.899-0.612-9.113 0-18.467 7.346-35.218 19.275-47.49l-0.016 0.016 135.422-166.807v-21.657h-383.965v21.657l135.422 166.861c14.51 14.939 20.958 36.006 17.519 56.533l-0.001 570.064z" />
<glyph unicode="&#xe928;" glyph-name="quickGame" d="M832.041 841.81l136.974 118.19-178.662-88.454c-220.26 141.186-515.153 95.399-680.553-111.45-173.585-217.061-138.271-532.787 84.151-707.283l-138.966-116.812 170.875 93.52c220.84-147.379 521.085-102.73 688.294 106.202 173.938 217.334 137.805 532.002-82.114 706.088zM127.069 726.99c146.752 196.399 418.104 248.959 627.503 126.842l-340.191-168.416 150.156-78.778c17.759-9.119 18.647-34.938 1.708-45.309l-353.704-218.916 166.208-87.088c16.188-8.549 18.875-31.306 4.781-43.146l-163.123-137.122c-206.986 157.772-246.398 447.099-93.338 651.933zM259.717 48.054l328.158 179.607-154.255 80.827c-17.668 9.062-18.693 34.699-1.935 45.195l367.023 232.919-129.893 66.825c-16.279 8.242-19.046 31.147-5.237 43.032l142.313 122.789c209.923-161.893 245.088-459.235 80.713-663.579-152.49-189.579-422.305-233.579-626.888-107.614zM234.285 200.225c-239.624 258.305-6.147 678.732 348.24 610.985 1.742 8.766 4.406 17.315 7.969 25.5-385.284 76.433-636.075-384.976-370.666-660.050 4.117 8.99 8.948 16.738 14.623 23.777l-0.166-0.212zM797.343 726.967c-4.064-8.242-9.107-15.961-15.027-22.996 253.308-257.679 14.253-694.726-348.354-617.701-2.6-9.479-5.94-17.722-10.105-25.456l0.314 0.639c393.856-87.976 651.774 390.327 373.171 665.515z" />
<glyph unicode="&#xe929;" glyph-name="top" horiz-adv-x="1234" d="M412.531-38.17c-2.235-4.222-55.385 18.379-66.065 10.68-28.065-56.378-136.351-37.503-157.959-9.935-0.391 0.505-0.626 1.147-0.626 1.844 0 0.83 0.334 1.582 0.875 2.13v0c33.032 29.307 78.483 46.444 120.208 34.026-8.693 5.216-63.333 48.927-69.293 42.967-37.006-37.006-115.985-7.699-151.501 38.496-5.464 7.203 49.424 28.562 99.593 12.418 9.438-2.98 18.379-7.699 27.072-13.908-8.196 9.686-49.921 74.509-59.11 68.548-9.438-6.209-31.294-8.444-54.888 2.732-45.45 21.359-80.966 91.894-70.783 93.881 58.365 0 91.149-23.098 113.502-54.143-2.98 6.457-36.261 98.6-41.973 98.6-20.614-1.49-33.281 2.732-48.679 18.627-42.718 43.96-57.372 111.018-51.908 115.737 9.438 7.699 76.992-31.79 98.6-90.652-1.49 8.444-6.209 92.143-14.405 94.626-18.876 2.98-33.529 18.379-41.973 35.019-29.058 58.365-26.326 124.43-21.111 127.162 12.17 5.712 67.058-53.895 72.274-119.711 6.209 77.738 14.405 77.241-6.706 96.365-2.235 1.987-14.405 12.915-21.111 34.771-13.908 45.45-0.497 129.397 8.693 130.39 10.68 0 49.176-60.352 40.483-128.9 3.725 12.418 27.817 70.287 20.117 79.476-15.895 20.614-32.287 38.745-10.928 118.469 3.477 13.163 20.614 62.587 27.32 50.666 22.849-41.228 23.843-89.411 11.673-132.129 53.646 98.352 42.47 60.849 30.549 92.143-11.425 30.797 0.993 92.391 54.391 141.815 11.921 10.928 16.392-84.195-17.385-135.854 16.144 19.124 33.777 37.006 52.653 53.646 0 57.62 55.385 70.783 96.116 86.43 7.451 2.98 11.425 3.229 8.941-4.222-14.157-47.934-46.941-87.175-96.862-89.162-4.967-0.248-32.039-28.313-35.516-32.039 31.542 19.621 105.306 4.719 97.607-4.967-32.536-42.222-79.724-49.673-111.018-34.274-7.203 3.725-16.64 2.732-19.621 0.497-11.921-15.895-23.098-32.287-33.281-49.176 19.869 19.124 50.418 21.359 76.992 22.601 12.17 0.745 32.536 4.967 26.326-5.216-24.34-40.98-65.816-68.3-106.548-58.614-24.836 5.712-27.32-9.686-47.437-66.81 17.882 24.836 45.202 32.039 94.875 53.15 17.137 6.954-28.81-71.032-46.195-83.947-60.352-45.45-66.81 24.588-80.47-110.273 13.412 43.463 47.934 61.097 83.698 91.894 1.987 1.739 5.216 0.248 4.967-2.484-4.967-78.483-41.725-120.704-74.26-132.377-24.836-9.189-19.869-39.241-12.667-95.371 4.471 37.503 27.568 63.581 65.071 113.253 18.627 24.836 17.882-105.554-37.006-147.776-24.836-19.124-20.117-35.516 9.686-106.796-7.451 37.503 7.451 70.783 31.79 131.881 9.686 24.836 44.705-92.639 3.477-153.985-16.64-24.836-16.392-30.797 30.052-89.162l-0.248 0.248c-15.15 28.313-9.686 61.097-0.993 134.613 1.242 10.928 37.006-27.072 45.202-79.973 4.719-29.804 1.987-55.385-7.699-77.986-6.954-22.849 45.45-54.888 66.065-67.058-28.81 26.078-31.045 68.051-40.235 123.933-0.497 2.235 1.987 4.222 4.222 3.229 40.98-16.64 77.738-69.542 73.019-123.933-1.987-24.836 0.745-29.058 64.078-42.967 5.961-1.242-0.745-7.451-3.725-13.163zM817.61-25.007c63.333 13.908 66.065 18.13 64.078 42.967-4.471 54.391 32.039 107.293 73.019 123.933 2.235 0.993 4.471-0.993 4.222-3.229-9.189-55.882-11.425-97.855-40.235-123.933 20.614 12.17 72.77 44.209 66.065 67.058-9.686 22.601-12.17 48.182-7.699 77.986 8.196 52.901 43.96 91.149 45.202 79.973 8.941-73.515 14.157-106.299-1.739-135.109l-0.248-0.248c46.692 58.365 46.941 64.326 30.3 89.162-41.228 61.346-6.209 178.821 3.477 153.985 24.34-61.097 39.241-94.378 31.79-131.881 29.804 71.28 34.522 87.672 9.686 106.796-54.888 42.222-55.882 172.612-37.006 147.776 37.503-49.673 60.601-75.751 65.071-113.253 7.203 55.882 12.17 86.182-12.667 95.371-32.536 11.921-69.293 54.143-74.26 132.377-0.248 2.732 2.98 4.222 4.967 2.484 35.764-30.549 70.287-48.182 83.698-91.894-13.66 134.861-20.117 64.823-80.47 110.273-17.385 13.163-63.333 91.149-46.195 83.947 49.673-21.111 76.992-28.065 94.875-53.15-20.117 57.372-22.601 72.522-47.437 66.81-40.98-9.686-82.208 17.634-106.548 58.614-6.209 10.183 14.157 5.961 26.326 5.216 26.575-1.242 57.123-3.477 76.992-22.601-10.183 16.889-21.359 33.281-33.281 49.176-2.98 1.987-12.17 3.229-19.372-0.497-31.542-15.398-78.483-7.948-111.018 34.274-7.699 9.686 66.065 24.588 97.607 4.967-3.477 3.725-30.3 31.79-35.516 32.039-49.921 1.987-82.705 41.228-96.862 89.162-2.235 7.451 1.739 7.203 8.941 4.222 40.732-15.647 96.116-28.81 96.116-86.43 18.876-16.392 36.509-34.274 52.653-53.646-33.777 51.659-29.307 147.031-17.385 135.854 53.398-49.424 65.816-111.018 54.391-141.815-11.673-31.294-23.098 6.209 30.797-92.143-11.921 43.215-10.928 91.398 11.921 132.626 6.954 11.673 23.843-37.751 27.32-50.666 21.111-79.476 4.719-97.855-10.928-118.469-7.451-9.189 16.64-66.81 20.117-79.476-8.693 68.548 29.804 128.9 40.483 128.9 9.438-0.993 22.849-84.94 8.444-130.39-6.706-21.608-18.876-32.784-21.111-34.771-21.359-19.124-12.915-18.627-6.706-96.365 5.464 65.816 60.352 125.423 72.274 119.711 5.216-2.732 7.948-68.797-21.111-127.162-8.196-16.889-22.849-32.039-41.973-35.019-8.196-2.235-12.915-86.182-14.405-94.626 21.608 58.862 88.914 98.6 98.6 90.652 5.712-4.719-8.941-71.777-51.659-115.737-15.398-15.647-28.065-19.869-48.679-18.627-5.712 0-38.993-92.391-41.973-98.6 22.353 31.045 54.888 54.143 113.502 54.143 10.431-2.235-25.085-72.77-70.783-93.881-23.594-11.176-45.45-8.941-54.888-2.732-9.189 5.961-50.914-58.862-59.11-68.548 8.693 6.209 17.634 10.928 27.072 13.908 50.169 16.144 105.306-4.967 99.593-12.418-35.516-46.195-114.495-75.502-151.501-38.496-5.961 5.961-60.601-37.751-69.293-42.967 41.725 12.418 87.175-4.719 120.208-34.026 1.242-0.993 1.242-2.98 0.248-4.222-21.608-27.32-129.894-46.195-157.959 9.935-10.68 7.699-63.829-14.653-66.065-10.68-2.98 5.961-9.686 12.17-3.974 13.412z" />
<glyph unicode="&#xe92a;" glyph-name="qr-code" d="M384 960h-384v-384h384v384zM320 640h-256v256h256v-256zM128 832h128v-128h-128v128zM0-64h384v384h-384v-384zM64 256h256v-256h-256v256zM128 192h128v-128h-128v128zM640 960v-384h384v384h-384zM960 640h-256v256h256v-256zM768 832h128v-128h-128v128zM128 512h-128v-128h192v64h-64zM448 384h128v-128h-128v128zM192 512h128v-64h-128v64zM576 192h-128v-64h64v-64h64v64zM384 512v-64h-64v-64h128v128zM512 704h64v-128h-64v128zM576 448v-64h128v128h-192v-64zM448 576h64v-64h-64v64zM576 64h128v-128h-128v128zM448 64h64v-128h-64v128zM576 256h64v-64h-64v64zM576 768v128h-64v64h-64v-256h64v64zM768 64h64v-128h-64v128zM768 192h128v-64h-128v64zM704 128h64v-64h-64v64zM640 192h64v-64h-64v64zM896 320v-64h64v-64h64v128h-64zM960 128h-64v-192h128v128h-64zM640 320v-64h192v128h-128v-64zM768 512v-64h128v-64h128v128h-128z" />
<glyph unicode="&#xe92b;" glyph-name="info" d="M87.609 161.849c-226.987 335.076 11.947 798.151 424.391 798.151 464.782 0 690.631-576.853 343.609-891.449-90.432-82.282-211.159-132.665-343.654-132.665-175.971 0-331.184 88.873-423.204 224.183l-1.142 1.78zM512 887.751c-366.364 0-568.889-422.116-348.729-707.698 81.080-105.067 207.040-172.082 348.652-172.082 114.151 0 218.131 43.544 296.237 114.929l-0.338-0.304c295.253 269.084 106.382 765.156-295.822 765.156zM433.493 403.058c9.102 36.409 11.947 64.853-80.782 0.569l-17.067 28.444c83.058 71.111 178.062 112.64 218.453 112.64 61.44 0 21.049-110.933-22.187-278.756-11.378-44.373-1.138-67.129 79.644-2.276l19.342-26.738c-80.213-82.489-167.822-114.347-201.956-114.347-78.507 0.569-35.84 110.364 4.551 280.462zM540.444 627.769c-97.28 0-77.938 145.067 21.618 145.067 96.142 0 80.213-145.067-21.618-145.067z" />
<glyph unicode="&#xe92c;" glyph-name="arrow-rate" horiz-adv-x="895" d="M21.354 490.493h233.678v-533.211c0-11.752 9.531-21.283 21.283-21.283h341.166c0.021 0 0.046 0 0.072 0 11.754 0 21.283 9.529 21.283 21.283 0 0 0 0 0 0v0 533.211h234.538c11.78 0.018 21.323 9.571 21.323 21.354 0 5.871-2.37 11.189-6.204 15.049l0.001-0.001-425.437 426.87c-3.863 3.855-9.195 6.239-15.084 6.239s-11.221-2.384-15.084-6.239v0l-426.583-426.87c-3.894-3.858-6.305-9.208-6.305-15.12 0-11.754 9.529-21.283 21.283-21.283 0.025 0 0.050 0 0.074 0h-0.004z" />
<glyph unicode="&#xe92d;" glyph-name="logo-tron" horiz-adv-x="1229" d="M920.098 295.333l156.358 13.764c-129.89-133.669-486.275-176.514-741.871-99.976-293.367 87.852-310.032 282.737-23.060 379.712l124.552-347.8c26.087-4.665 53.812-8.365 83.053-10.915l-189.636 523.494 257.559-306.555-22.737-219.88c27.621-1.201 51.244-1.267 74.939-0.69l20.777 200.391 269.868 139.508-230.151-336.693c40.542 3.36 78.279 9.004 112.988 16.329l262.131 384.961c14.135 20.746 9.062 49.016-11.2 63.598-158.243 139.206-166.594 153.358-208.021 161.885-0.24 0.048-604.913 102.385-604.913 102.385-33.628 7.716-62.829-24.824-51.090-57.605 72.436-202.282 92.915-259.454 94.902-264.997-471.817-128.109-351.027-444.082 178.731-499.085l61.192-170.861c12.639-35.297 59.825-41.091 80.778-10.318l122.314 179.631c189.705 17.564 347.337 74.149 428.41 150.19l38.331-113.809 24.446 253.615-308.652-130.278zM871.507 750.678l88.81-84.907-207.311-107.404 118.501 192.31zM797.859 778.907l-172.704-264.737-276.558 333.861 449.262-69.124z" />
<glyph unicode="&#xe92e;" glyph-name="tron" horiz-adv-x="887" d="M336.109-32.135l-333.317 930.229c-12.508 34.21 18.352 69.016 54.089 60.678l589.541-113.128c37.635-8.078 45.899-19.581 219.854-149.758 21.814-15.188 27.398-45.266 12.396-67.267l-457.539-671.586c-22-32.349-72.031-26.207-85.023 10.833zM436.134 137.539l288.088 421.207-258.234-133.416-29.855-287.791zM357.105 145.617l31.083 300.633-246.21 292.891 215.126-593.524zM428.354 518.505l156.273 246.135-423.403 76.201 267.13-322.336zM561.287 563.436l193.982 100.434-91.761 71.659-102.221-172.094z" />
<glyph unicode="&#xe92f;" glyph-name="bet" horiz-adv-x="2013" d="M2009.622 364.519l-81.468-265.354c-12.717-41.306-64.314-42.083-78.403-1.83l-26.028 74.561c-393.526-383.417-1823.723-276.333-1823.723 154.519 0 109.508 103.333 208.633 290.056 282.096v283.377c0 43.273 23.283 68.111 63.903 68.111h166.916c226.793 0 277.248-268.785 138.83-365.623 220.16-83.572 157.63-436.936-118.474-436.936-82.246 0-116.37-9.149-227.525 58.917-14.308 9.205-23.65 25.048-23.65 43.073 0 0.102 0 0.205 0.001 0.307v-0.016 223.957c-76.848-47.664-118.977-102.235-118.977-157.264 0-332.917 1250.61-424.677 1521.957-86.957l-134.393 5.26c-34.902 1.464-41.443 55.395-8.096 66.693l391.742 132.929c42.953 14.546 82.017-32.203 67.334-79.821zM414.842 275.778h105.895c203.053 0 190.519 247.377 10.201 247.377h-116.095v-247.377zM414.842 636.278h89.656c142.718 0 137.915 205.34 10.292 205.34h-99.948v-205.34zM1797.649 841.617h-128.217v-403.818c0.001-0.116 0.002-0.252 0.002-0.389 0-18.065-11.495-33.445-27.569-39.225l-0.291-0.091-72.548-24.61c-1.71-0.57-3.678-0.899-5.723-0.899-10.307 0-18.663 8.356-18.663 18.663 0 0.155 0.002 0.31 0.006 0.465v-0.023 449.927h-125.381c-77.946-0.732-80.965 118.383 2.058 118.383h372.484c84.624 0 81.88-118.383 3.842-118.383zM1211.912 281.039c72.411 0 81.788-123.597-5.947-123.597h-268.694c-39.293 0-61.844 24.793-61.844 68.111v664.232c0 34.627 19.303 70.215 55.761 70.215h280.861c75.476 0 76.94-123.597-2.196-123.597h-209.685v-195.917h198.524c78.449 0 78.952-118.383 0-118.383h-198.524v-241.065h211.744z" />
<glyph unicode="&#xe930;" glyph-name="allert-tron" horiz-adv-x="974" d="M933.583 868.494c-13.508 51.418-87.694 29.195-75.166-18.519l8.715-32.681c-330.294 311.557-868.875 79.306-867.132-371.472 1.852-482.151 608.735-688.259 905.804-325.174 40.089 49.021-24.729 91.18-53.923 53.923-256.218-317.658-765.168-137.042-775.517 261.665-10.022 387.268 453.937 595.227 736.3 327.68l-34.86 14.162c-48.368 18.846-75.166-53.706-28.323-71.898l143.796-58.826c40.851-17.648 90.744 19.391 78.434 68.63l-38.128 152.511zM459.711 89.055l-218.962 611.023c-8.17 22.441 12.092 45.317 35.513 39.871l387.268-74.294c24.729-5.338 30.175-12.854 144.449-98.369 8.32-5.865 13.688-15.434 13.688-26.257 0-6.709-2.063-12.935-5.588-18.081l0.071 0.109-300.555-441.083c-14.489-21.243-47.387-17.212-55.884 7.081zM525.399 200.497l189.222 276.698-169.614-87.585c0-0.109-19.609-189.113-19.609-189.113zM473.546 205.835l20.371 197.501-161.661 192.272 141.29-389.774zM520.279 450.723l102.618 161.661-278.114 50.002 175.496-211.663zM607.646 480.245l127.455 66.015-60.242 47.060c-0.109 0-67.214-113.076-67.214-113.076z" />
<glyph unicode="&#xe931;" glyph-name="dividends" horiz-adv-x="1147" d="M907.565 329.999c-148.604 0-239.702 44.98-239.702 77.149s91.098 77.149 239.702 77.149 239.702-44.98 239.702-77.149-91.098-77.149-239.702-77.149zM540.895 733.678v-308.31c0-17.935-14.519-32.169-32.169-32.169h-211.803c-43.841 0-43.841 80.85 0 80.85h163.407v259.63c0 43.556 80.565 43.841 80.565 0zM501.324 879.15c-232.016 0-420.76-189.029-420.76-421.044 0-286.959 282.689-491.076 554.845-399.408 0-49.819-3.701-60.068 11.957-80.85-321.975-98.215-647.366 144.618-647.366 480.258 0 276.711 224.899 501.894 501.324 501.894 258.776 0 472.572-197.284 498.762-449.512-27.045 3.701-54.659 5.694-81.988 5.978-28.183 204.686-204.401 362.684-416.774 362.684zM667.863 89.728c99.923-73.733 380.050-73.448 479.404 0.285v-78.287c0-100.777-479.404-101.062-479.404 0-0.285 0 0 9.11 0 78.003zM667.863 273.348v80.28c99.639-74.017 379.765-73.733 479.404 0v-78.003c-0.285-98.5-467.163-104.193-479.404-2.277zM1146.982 143.533c0-98.215-466.878-103.909-479.404-2.277v79.996c99.639-73.733 379.765-73.733 479.404 0.285 0.285 0.285 0-78.003 0-78.003z" />
<glyph unicode="&#xe932;" glyph-name="referal" horiz-adv-x="1021" d="M981.404 87.641h-109.613v-107.625c0-58.214-79.796-59.35-79.796 0.284v107.341h-109.613c-52.819 0-52.819 79.796 0 79.796h109.613v109.897c-1.42 52.819 78.376 54.806 79.796 1.988v-111.885h109.613c52.819 0 52.819-79.796 0-79.796zM673.012 471.286c20.446-6.815 40.324-14.767 59.918-24.138 47.423-22.718 13.631-94.846-34.361-72.129-256.142 122.108-560.843-30.953-618.205-306.973-5.395-25.273 13.631-50.263 40.324-50.263h491.27c52.819 0 52.819-79.796 0-79.796h-490.986c-76.956-0.284-134.034 71.277-118.416 146.245 37.484 178.050 166.407 327.987 345.593 387.053-208.719 155.9-96.834 488.714 162.432 488.714 258.982 0 371.434-332.53 162.432-488.714zM510.58 880.204c-246.487 0-257.278-370.014-9.655-383.077h19.31c247.623 13.063 237.116 383.077-9.655 383.077z" />
<glyph unicode="&#xe933;" glyph-name="dividends-thin" horiz-adv-x="1162" d="M523.159 378.873h-237.378c-32.752 0-32.462 49.273 0 49.273h212.742v307.519c0 32.462 49.273 32.462 49.273 0v-332.155c0-13.622-11.014-24.636-24.636-24.636zM919.368 458.869c-133.905 0-242.305-28.404-242.305-63.475s108.4-63.475 242.305-63.475 242.305 28.404 242.305 63.475-108.4 63.475-242.305 63.475zM512.145 960c-282.593 0-512.145-229.552-512.145-512.145 0-335.343 321.721-587.213 653.586-491.566-19.419 14.782-13.912 31.303-13.912 56.229-293.896-86.082-581.706 136.224-581.706 435.338 0 250.421 203.757 454.177 454.177 454.177 234.479 0 429.251-180.859 451.279-410.412 20.289-0.87 39.998-2.609 58.258-4.637-20.289 263.753-242.015 473.017-509.536 473.017zM677.353 350.179v-96.226c0-76.517 484.32-76.517 484.32 0v95.937c-1.449-76.517-484.32-75.648-484.32 0.29zM677.353 85.267v-93.038c0-73.909 484.32-73.909 484.32 0v92.748c-1.449-73.909-484.32-73.039-484.32 0.29zM677.353 214.825v-92.459c0-73.619 484.32-73.619 484.32 0v92.169c-1.449-73.329-484.32-72.46-484.32 0.29z" />
<glyph unicode="&#xe934;" glyph-name="referal-thin" horiz-adv-x="1067" d="M742.213-9.256h-680.554c-4.034 0-7.491 3.458-6.627 7.491 61.659 380.615 432.189 487.221 694.096 341.718 31.982-17.576 58.201 30.253 26.508 47.829-51.575 28.524-103.725 45.524-148.961 55.32 88.167 45.524 148.673 137.436 148.673 243.178 0 150.978-122.742 273.72-273.72 273.72s-273.72-122.742-273.72-273.72c0-107.759 62.811-200.824 153.571-245.483-297.346-70.879-366.208-343.734-380.615-433.63-6.051-37.456 23.050-71.167 60.795-71.167h680.842c36.016 0 36.016 54.744-0.288 54.744zM282.652 686.28c0 120.725 98.251 218.976 218.976 218.976s218.688-98.251 218.688-218.976-98.251-218.976-218.976-218.976-218.688 98.251-218.688 218.976zM1039.559 106.859h-148.097v-143.487c0-36.304-54.744-36.304-54.744 0v143.487h-148.097c-36.304 0-36.304 54.744 0 54.744h148.097v143.487c0 36.304 54.744 36.304 54.744 0v-143.487h148.097c36.016 0 36.016-54.744 0-54.744z" />
<glyph unicode="&#xe935;" glyph-name="airdrop" horiz-adv-x="717" d="M716.288 626.688c-42.496 47.616-110.592 49.664-165.376-38.4-37.376-59.904-57.344-62.976-96.768 0-59.904 96.256-133.632 94.72-192.512 0-36.352-59.392-56.832-63.488-96.256 0-54.784 88.064-122.88 86.016-165.376 38.4-11.776 165.888 143.36 333.312 358.4 333.312 217.088 0 371.712-171.52 357.888-333.312zM117.76 563.712c59.392-95.232 133.632-95.232 192.512 0 36.864 59.392 57.344 62.976 96.768 0 59.392-95.232 133.632-95.232 192.512 0 41.472 66.56 60.928 56.832 99.84-5.632-43.008-109.056-155.648-245.76-239.616-366.080h-202.24c-83.968 120.32-196.608 257.024-239.616 366.592 38.912 62.464 58.368 72.192 99.84 5.12zM478.208-21.504c0-23.552-17.92-42.496-40.448-42.496h-158.72c-22.016 0-40.448 18.944-40.448 42.496v138.24h239.616v-138.24z" />
<glyph unicode="&#xe936;" glyph-name="quest" d="M281.6 960c-70.4 0-128-57.6-128-128v-307.2c0.256-15.104 9.728-21.504 22.528-25.6-12.8-4.352-22.272-10.752-22.528-25.6v-307.2h-128c-13.056 0.512-25.6-10.752-25.6-25.6v-76.8c0-70.4 57.6-128 128-128h563.2c70.4 0 128 57.6 128 128v128c0 11.52-6.656 21.76-22.272 25.6 15.872 3.84 22.528 14.080 22.272 25.6v256c0.256 12.288-6.144 17.152-14.336 25.6 8.448 8.448 14.592 13.312 14.336 25.6v25.6c-0.256 15.104-9.728 21.504-22.272 25.6 12.544 4.096 22.272 10.496 22.272 25.6v102.4h179.2c14.080 0 25.6 11.52 25.6 25.6v76.8c0 69.12-55.808 126.208-124.928 128h-617.472zM281.6 908.8h515.328c-16.896-21.76-28.928-47.36-28.928-76.8v-186.368l-59.136-19.968c-22.272-8.192-22.016-39.68 0-48.128l56.064-19.2c-37.376-37.376-25.6-41.472 3.328-70.4v-224.768l-83.2-20.736c-25.6-6.656-25.6-43.008 0-49.664l82.944-20.736v-108.032c0-101.632-153.6-101.888-153.6 0v76.8c0 14.080-11.52 25.6-25.6 25.6h-384v288.768l59.136 19.968c22.272 8.192 22.016 39.68 0 48.128l-59.136 19.968v288.768c0 42.752 34.048 76.8 76.8 76.8zM972.8 832v-51.2h-153.6v51.2c0 102.912 153.6 101.888 153.6 0zM360.192 627.2h254.208c34.304-0.512 34.304 51.712 0 51.2h-254.208c-44.8 0-39.936-51.2 0-51.2zM360.192 524.8h151.808c33.792-0.512 34.56 50.688 0.768 51.2h-152.576c-42.752 0-41.472-51.2 0-51.2zM360.192 422.4h254.208c33.792-0.512 34.56 50.688 0.768 51.2h-254.976c-42.752 0-44.288-51.2 0-51.2zM360.192 320h151.808c33.792-0.512 34.56 50.688 0.768 51.2h-152.576c-44.544 0-43.264-51.2 0-51.2zM51.2 115.2h512c0-55.040-5.376-83.968 28.928-128h-464.128c-42.752 0-76.8 34.048-76.8 76.8v51.2z" />
<glyph unicode="&#xe937;" glyph-name="info1" d="M933.852-64h-843.705c-49.758 0.072-90.075 40.389-90.148 90.141v843.712c0 49.835 40.312 90.148 90.148 90.148h844.022c0 0 0 0 0.001 0 49.612 0 89.83-40.218 89.83-89.83 0-0.112 0-0.223-0.001-0.335v0.017-844.022c-0.341-49.585-40.536-89.669-90.132-89.83h-0.016zM964.007 870.17c0 16.506-13.332 29.838-29.838 29.838h-844.022c-16.506 0-29.838-13.332-29.838-29.838v-844.022c0-16.506 13.332-29.838 29.838-29.838h844.022c16.506 0 29.838 13.332 29.838 29.838v844.022zM631.985 118.2h-239.97c-39.678 0-39.678 59.993 0 59.993h29.838v299.963h-29.838c-39.678 0-39.678 59.993 0 59.993h179.978c16.506 0 29.838-13.332 29.838-29.838v-330.118h29.838c39.995 0 39.995-59.993 0.317-59.993zM541.838 478.155h-59.993v-299.963h59.993v299.963zM512 598.14c-69.515 0-112.050 75.229-78.086 134.586 33.012 58.088 115.541 61.262 152.679 5.714 39.995-59.040-2.222-140.3-74.594-140.3zM491.050 708.285c-17.141-18.728-4.444-49.2 20.95-50.153 25.076 1.27 37.456 30.79 21.585 49.518-11.427 13.014-30.155 13.967-42.534 0.635z" />
<glyph unicode="&#xe938;" glyph-name="danger" horiz-adv-x="1103" d="M941.546-64h-779.718c-122.825 0-200.489 131.379-141.642 239.15v0.342l390.030 700.343c61.242 112.219 222.043 112.219 283.285 0l390.030-700.686c58.847-107.429-19.159-239.15-141.985-239.15zM1026.737 144.358l-389.688 700.686c-36.95 67.4-133.431 67.4-170.039 0v-0.342l-390.372-700.343c-35.24-64.663 11.632-143.353 85.191-143.353h779.718c73.558-0.342 120.43 78.69 85.191 143.353zM580.255 82.432c-16.080-29.423-60.557-17.791-60.557 15.396v193.989h-161.486c-17.87 0.032-32.344 14.525-32.344 32.4 0 5.682 1.463 11.022 4.032 15.665l-0.084-0.166 193.647 355.475c16.080 29.423 60.557 17.791 60.557-15.396v-193.989h161.486c24.633 0 40.029-26.344 28.397-47.898l-193.647-355.475zM551.858 421.143c-17.791 0-32.503 14.37-32.503 32.16v99.56l-107.087-196.384h139.59c17.791 0 32.16-14.37 32.16-32.16v-99.56l107.087 196.384h-139.248z" />
<glyph unicode="&#xe939;" glyph-name="attention" horiz-adv-x="1101" d="M940.004-64h-778.499c-122.58-0.683-200.771 132.481-141.018 239.354l389.25 701.332c59.753 109.946 220.233 111.995 282.377 0l389.25-701.332c59.412-106.873-19.121-240.037-141.359-239.354zM1024.683 144.283l-389.25 701.332c-36.193 66.582-133.164 66.582-169.358 0l-389.25-701.332c-35.852-64.192 11.268-144.091 84.679-143.749h778.499c73.411-0.341 120.531 79.557 84.679 143.749zM471.197 106.724c-44.047 63.168 0.683 151.944 79.557 151.944 79.557 0 123.945-90.142 78.533-153.31-17.771-24.527-46.326-40.297-78.563-40.297-32.825 0-61.832 16.35-79.32 41.351l-0.207 0.312zM550.754 194.134c-27.316-1.366-40.632-33.803-22.536-53.949 12.292-13.658 32.096-13.999 44.73 0 18.438 20.145 5.122 52.924-22.194 53.949zM453.783 419.831v258.475c3.414 124.628 190.186 124.97 193.601 0v-258.475c0-128.384-193.259-127.36-193.601 0zM582.85 678.306c0 42.681-64.534 42.681-64.534 0v-258.475c0-42.681 64.534-42.681 64.534 0v258.475z" />
<glyph unicode="&#xe93a;" glyph-name="tronlink" d="M1024.373 491.731l-298.146-318.24-400.388 488.969 698.534-170.729zM258.984 757.009c473.397-116.648 765.343-188.911 765.343-188.911v391.203s-685.34 1.026-774.48 0.606c-134.737-0.606-247.655-113.757-248.774-249.007-1.445-175.531-1.399-351.108-0.047-526.639 0.979-122.755 95.481-248.634 217.444-248.307 82.148 0.233 254.741 0 254.741 0s-109.654 310.501-271.059 769.352c-12.122 34.453-1.911 66.156 56.832 51.704zM288.402 625.629l246.349-689.629h140.798s13.847 125.599 19.301 187.326c0.699 7.739-5.315 17.437-10.816 24.103-62.193 75.807-395.632 478.199-395.632 478.199zM834.809 223.376l189.564 96.973v105.412h-0.047l-189.517-202.385zM749.491 106.169c-2.797-24.803-17.53-170.123-17.53-170.123s53.941-0.047 74.502-0.093c121.962-0.326 216.465 125.552 217.444 248.307 0.186 24.243 0.42 72.777 0.42 72.777s-181.685-93.71-264.485-137.254c-4.662-2.471-9.791-8.672-10.35-13.614z" />
<glyph unicode="&#xe93b;" glyph-name="search" horiz-adv-x="1035" d="M997.712 141.999l-261.698 258.388c131.317 255.204-56.261 559.613-346.87 559.613-215.303 0-389.144-172.467-389.144-385.21 0-287.112 306.782-473.566 565.357-343.373l261.011-259.075c111.585-110.399 286.737 55.387 171.343 169.657zM145.429 574.79c0 131.505 107.277 241.279 243.714 241.279 135.688 0 243.777-109.025 243.777-241.279 0-133.003-108.838-241.279-243.777-241.279-136.5 0-243.714 109.837-243.714 241.279z" />
<glyph unicode="&#xe93c;" glyph-name="play" d="M512 960c-282.77 0-512-229.23-512-512s229.23-512 512-512 512 229.23 512 512-229.23 512-512 512zM512 32c-229.75 0-416 186.25-416 416s186.25 416 416 416 416-186.25 416-416-186.25-416-416-416zM384 672l384-224-384-224z" />
<glyph unicode="&#xe93d;" glyph-name="question" d="M508.104 960c-282.713-2.226-510.33-233.183-508.104-515.896 2.226-284.939 236.522-513.67 522.017-508.104 282.713 5.565 507.548 239.304 501.983 522.017-5.55 278.422-232.562 501.999-511.793 501.999-1.442 0-2.883-0.006-4.323-0.018l0.221 0.001zM506.991 136.348c-48.974 1.113-76.8 35.061-75.687 76.243 1.113 41.739 32.278 74.017 77.357 72.904 44.522-1.113 75.13-32.835 74.017-77.357-1.67-42.296-32.835-71.791-75.687-71.791zM597.704 423.513c-31.165-23.93-35.617-40.070-36.174-75.13h-119.652c2.783 76.243-3.896 95.165 109.078 167.513 61.217 45.078 52.87 138.574-36.174 138.574-54.539 0-77.913-40.070-77.913-92.383h-122.991c6.122 138.574 85.704 197.565 195.896 197.565s209.809-51.2 209.809-171.409c0-80.696-55.652-118.539-121.878-164.73z" />
<glyph unicode="&#xe93e;" glyph-name="apex" horiz-adv-x="1147" d="M819.2 960h327.68v-286.72h-327.68v286.72zM409.6 591.36h327.68v-286.72h-327.68v286.72zM0 222.72h327.68v-286.72h-327.68v286.72zM409.6 673.28h327.68v286.72h-327.68v-286.72zM450.56 919.040h245.76v-204.8h-245.76v204.8zM0 673.28h327.68v286.72h-327.68v-286.72zM40.96 919.040h245.76v-204.8h-245.76v204.8zM0 304.64h327.68v286.72h-327.68v-286.72zM40.96 550.4h245.76v-204.8h-245.76v204.8zM409.6-64h327.68v286.72h-327.68v-286.72zM450.56 181.76h245.76v-204.8h-245.76v204.8zM819.2 591.36v-286.72h327.68v286.72h-327.68zM1105.92 345.6h-245.76v204.8h245.76v-204.8zM819.2-64h327.68v286.72h-327.68v-286.72zM860.16 181.76h245.76v-204.8h-245.76v204.8z" />
<glyph unicode="&#xe93f;" glyph-name="user-2" horiz-adv-x="866" d="M866.462 151.828l-3.151-3.938c-115.003-137.058-267.815-211.889-430.080-211.889s-315.077 74.831-430.080 211.102l-3.151 4.726 0.788 5.514c22.055 143.36 97.674 258.363 212.677 323.742l7.877 4.726 6.302-7.089c54.351-56.714 127.606-87.434 205.588-87.434s151.237 30.72 205.588 87.434l6.302 7.089 7.877-4.726c115.003-65.378 190.622-180.382 212.677-323.742l0.788-5.514zM433.231 448.788c142.572 0 258.363 115.003 258.363 256s-115.791 255.212-258.363 255.212c-141.785 0-257.575-115.003-257.575-256 0-140.209 115.791-255.212 257.575-255.212z" />
<glyph unicode="&#xe940;" glyph-name="clock" d="M512 960c-282.77 0-512-229.23-512-512s229.23-512 512-512v0c282.77 0 512 229.23 512 512s-229.23 512-512 512v0zM515.151 309.366s7.877-3.938-237.883 112.64c-14.748 6.657-24.827 21.234-24.827 38.165 0 6.758 1.606 13.141 4.456 18.788l-0.109-0.239c6.939 14.623 21.584 24.554 38.548 24.554 6.599 0 12.847-1.503 18.421-4.185l-0.255 0.111 176.443-83.495v370.215c0 23.631 18.905 42.535 42.535 42.535s42.535-18.905 42.535-42.535v-437.169c0.788-30.72-30.72-52.775-59.865-39.385z" />
<glyph unicode="&#xea90;" glyph-name="facebook" d="M608 768h160v192h-160c-123.514 0-224-100.486-224-224v-96h-128v-192h128v-512h192v512h160l32 192h-192v96c0 17.346 14.654 32 32 32z" />
<glyph unicode="&#xea96;" glyph-name="twitter" d="M1024 733.6c-37.6-16.8-78.2-28-120.6-33 43.4 26 76.6 67.2 92.4 116.2-40.6-24-85.6-41.6-133.4-51-38.4 40.8-93 66.2-153.4 66.2-116 0-210-94-210-210 0-16.4 1.8-32.4 5.4-47.8-174.6 8.8-329.4 92.4-433 219.6-18-31-28.4-67.2-28.4-105.6 0-72.8 37-137.2 93.4-174.8-34.4 1-66.8 10.6-95.2 26.2 0-0.8 0-1.8 0-2.6 0-101.8 72.4-186.8 168.6-206-17.6-4.8-36.2-7.4-55.4-7.4-13.6 0-26.6 1.4-39.6 3.8 26.8-83.4 104.4-144.2 196.2-146-72-56.4-162.4-90-261-90-17 0-33.6 1-50.2 3 93.2-59.8 203.6-94.4 322.2-94.4 386.4 0 597.8 320.2 597.8 597.8 0 9.2-0.2 18.2-0.6 27.2 41 29.4 76.6 66.4 104.8 108.6z" />
<glyph unicode="&#xeab0;" glyph-name="github" d="M512.008 947.358c-282.738 0-512.008-229.218-512.008-511.998 0-226.214 146.704-418.132 350.136-485.836 25.586-4.738 34.992 11.11 34.992 24.632 0 12.204-0.48 52.542-0.696 95.324-142.448-30.976-172.504 60.41-172.504 60.41-23.282 59.176-56.848 74.916-56.848 74.916-46.452 31.778 3.51 31.124 3.51 31.124 51.4-3.61 78.476-52.766 78.476-52.766 45.672-78.27 119.776-55.64 149.004-42.558 4.588 33.086 17.852 55.68 32.506 68.464-113.73 12.942-233.276 56.85-233.276 253.032 0 55.898 20.004 101.574 52.76 137.428-5.316 12.9-22.854 64.972 4.952 135.5 0 0 43.006 13.752 140.84-52.49 40.836 11.348 84.636 17.036 128.154 17.234 43.502-0.198 87.336-5.886 128.256-17.234 97.734 66.244 140.656 52.49 140.656 52.49 27.872-70.528 10.35-122.6 5.036-135.5 32.82-35.856 52.694-81.532 52.694-137.428 0-196.654-119.778-239.95-233.79-252.624 18.364-15.89 34.724-47.046 34.724-94.812 0-68.508-0.596-123.644-0.596-140.508 0-13.628 9.222-29.594 35.172-24.566 203.322 67.776 349.842 259.626 349.842 485.768 0 282.78-229.234 511.998-511.992 511.998z" />
<glyph unicode="&#xeac9;" glyph-name="linkedin" d="M928 960h-832c-52.8 0-96-43.2-96-96v-832c0-52.8 43.2-96 96-96h832c52.8 0 96 43.2 96 96v832c0 52.8-43.2 96-96 96zM384 128h-128v448h128v-448zM320 640c-35.4 0-64 28.6-64 64s28.6 64 64 64c35.4 0 64-28.6 64-64s-28.6-64-64-64zM832 128h-128v256c0 35.4-28.6 64-64 64s-64-28.6-64-64v-256h-128v448h128v-79.4c26.4 36.2 66.8 79.4 112 79.4 79.6 0 144-71.6 144-160v-288z" />
</font>
</defs>
</svg>
